<svg xmlns="http://www.w3.org/2000/svg" viewBox="0 0 536 1499.18"><defs><style>.cls-1{opacity:0.9;}.cls-2{fill:#fff;}</style></defs><title>Asset 3contour</title><g id="Layer_2" data-name="Layer 2"><g id="Layer_1-2" data-name="Layer 1"><g class="cls-1"><path class="cls-2" d="M0,283V216c2.45.43,5.08.44,7.32,1.37,11.37,4.72,22.83,9.28,33.86,14.7,5.74,2.82,10.76,7.17,15.92,11.07,3.64,2.76,7,5.92,10.46,8.9L84,269.44c.8,1.15,1.37,2.64,2.45,3.38,9.41,6.5,19.46,8.62,30.78,5.39,16.2-4.63,31.61-1.73,45.05,8.07,10.47,7.63,21.4,11.87,34.36,10.7,4.64-.42,9.37-.19,13.93-1a85.93,85.93,0,0,0,14.2-3.93c5.92-2.11,11.48-5.62,17.54-6.88,11.36-2.37,23-3.81,34.5-5.14,6.74-.78,13.94-2.07,20.31-.53a322,322,0,0,1,41.82,13.06c12.58,4.94,24.95,10.16,38.42,12,13.75,1.92,27.77,3.31,41.1-1.06,11.13-3.66,21.66-9.26,32.29-14.36,12.73-6.11,24.94-13.42,38-18.72,15.08-6.12,30.95-9.11,47.29-4.48v34c-5.43-1.15-10.91-3.42-16.27-3.18a68.76,68.76,0,0,0-19.84,4.31C485,306.52,472,315.48,460.3,325.78c-16.94,14.86-36.5,17.93-57.82,15.7-14.41-1.5-26.84-8.25-39.7-14.15-14-6.42-28.2-12.59-42.79-17.44-10.33-3.44-21.38-5-32.24-6.43a82.62,82.62,0,0,0-21.88-.08c-22.25,3.08-43,11.3-63.47,20.11-19.44,8.35-42.8,5.2-58.27-10.54-2.85-2.9-7.06-4.9-11-6.21-10.05-3.31-20.06-.91-30,1.29-3,.67-6.23,1.66-9.21,1.31-14.42-1.74-25.65-9.61-35.4-19.75C44.79,275.33,29.76,263.3,9.66,259.5c-2.65-.5-5.43-.3-8.16-.42l0,1.3a5.45,5.45,0,0,0,1.26.41c13.43,1,25.78,5.22,36.24,13.77,11.05,9,21.31,19.06,32.59,27.77,9.63,7.43,20.73,10.8,33.24,7.53a84.17,84.17,0,0,1,17.72-2.62c8.33-.33,15.75,1.81,22.17,8.12,11.69,11.51,26,15.89,42.5,14.08,13.09-1.44,24.29-7.76,36.12-12.46,18.06-7.19,36.59-12.54,56.13-12,8.87.23,17.64,3.14,26.54,4.08,21,2.24,39.55,11.09,57.83,20.75,16.84,8.92,34.23,15.06,53.78,14.35,14.51-.53,27.26-4.58,39-13.18,11.5-8.47,23.24-16.66,35.38-24.17a55.31,55.31,0,0,1,29.5-8.15c4.86,0,9.71,1.54,14.57,2.38V428a25.64,25.64,0,0,0-2.45,1.42c-5.34,3.91-10.19,8.91-16.1,11.54-8.39,3.73-17.62,5.55-26.38,8.51-21.25,7.18-43.06,7-64.6,3.15-20.88-3.75-41.4-9.5-62-14.65-23.73-5.93-47.51-8.68-72.14-6.24-19.18,1.9-37.22,6.06-54.43,14.72A304.71,304.71,0,0,1,204.1,461.2c-12.29,4.39-24.9,3.57-36.91-1.89-9.69-4.4-19.25-9.07-28.84-13.71-6.58-3.18-13-3.35-19.65,0-2.32,1.17-5.14,2.43-7.55,2.14-10.07-1.17-19.92-2.91-28.9-8.48-14.09-8.74-28.19-17.66-43.08-24.86C26.7,408.36,13.1,404.71,0,400V364c3.51.81,7.23,1.13,10.49,2.53,14.58,6.24,26.2,16.77,38.36,26.59,5.6,4.52,12.08,7.93,18.16,11.84,6.6,4.07,13,8.42,19.83,12.12,8.17,4.45,16.21,4.74,24.28-1.18s16.76-4.4,25.18-.74c7.62,3.32,14.91,7.39,22.57,10.6,11,4.64,22.48,7.64,34.41,3.49,7.36-2.57,14.95-5,21.7-8.75,18.69-10.45,39.11-15.69,59.59-20.63s41.05-.71,61.29,3c10.25,1.9,20.31,5.12,30.26,8.34,18.41,5.95,37.06,10.65,56.37,12.39,9.76.88,19.68,3,29.26,2,25.75-2.67,50.57-9.43,73.83-21.16a51.12,51.12,0,0,0,5.69-3.89l-.73-1c-.79.43-1.54.93-2.36,1.29-10.5,4.57-20.79,9.74-31.58,13.48A157.35,157.35,0,0,1,469,420.8c-10.46,1.6-21.13,3.15-31.64,2.75a205.93,205.93,0,0,1-37.05-4.93c-17.82-4-35.58-8.59-52.91-14.31-14.73-4.86-29.88-6.3-45-8.1-14-1.66-27.79,1.07-41.24,5.2-10.63,3.27-21.45,6-31.82,10-10.67,4.07-20.91,9.29-31.31,14.06-11.66,5.34-23.41,4.37-34.91-.11-8.65-3.37-17-7.66-25.43-11.49-9.23-4.18-18.59-5.81-27.5.39-6.84,4.75-13.64,5.51-21,1.86-1.94-.95-4-1.69-5.9-2.66-5.46-2.77-10.88-5.6-16.32-8.41-5.76-4.41-11.7-8.61-17.24-13.29C37.35,381.34,25.18,370.67,10,364.44c-3-1.24-6.67-1-10-1.44V318c2,.83,4,1.57,5.93,2.51,9.94,4.86,17.13,13.05,24.93,20.54,16,15.33,32.09,30.63,53.3,38.74,5.17,2,10.77,3.77,16.21,3.88,6,.12,12.19-1.56,18.2-2.86a30.88,30.88,0,0,1,21.8,3c11.71,6.38,24.35,8.82,37.36,9.17a57.51,57.51,0,0,0,18.55-2.82c11.71-3.72,23.08-8.51,34.7-12.56a223.37,223.37,0,0,1,23.84-7.28,175.45,175.45,0,0,1,49-4.38A217.88,217.88,0,0,1,347,373c17.17,4.48,33.94,10.59,51.2,14.64,12.56,2.94,25.7,5.42,38.46,4.94,15.64-.59,31.36-3.59,46.64-7.22,14.5-3.45,28.52-8.95,42.67-13.8,3-1,5.71-3.13,8.56-4.74l-.67-1.16c-3.11,1.39-6.15,3-9.36,4.14-11.13,3.86-22.33,7.54-33.51,11.28-15.68,5.24-31.9,9.09-48.27,9.43a197.69,197.69,0,0,1-74.24-12.89,194.72,194.72,0,0,0-27.68-8.38,269.61,269.61,0,0,0-43.94-5.51c-16.52-.76-32.3,1.83-47.71,6.18-18.2,5.14-35.81,12.35-53.68,18.66-14.22,5-28.27,2.05-42.08-1.54-7-1.83-13.48-5.66-20.42-7.87-10.18-3.25-20,1.36-30.07,2-4.34.29-9.08.32-13.09-1.08-17.53-6.13-32.55-16.4-45.87-29.29-8.62-8.34-17-17-26.29-24.52C12.59,322.12,5.93,320,0,317V285c6,0,11.58,1.57,16.18,5.54,4.4,3.81,8.73,7.72,12.79,11.88,13.28,13.62,26.6,27.34,43,37.11,10.34,6.17,21.61,11.52,34.46,6.57,4-1.56,8.06-3.18,12.21-4.34,7-1.95,13.55-1.77,19.67,3.23,15.11,12.35,32,19.93,52.12,19.23a58.76,58.76,0,0,0,24.49-5.94c9.83-4.86,19.63-9.89,29.81-13.95,14.2-5.65,29.32-4.89,44.32-5.52,20.59-.86,39.92,4,59.17,10.11,16,5.06,31.81,10.88,48,15.15,16.66,4.38,33.84,5.76,51,2.67,12.1-2.18,24.69-3.48,35.94-8C499,352.42,513.79,343.53,529,335.6c2-1.05,3.62-2.85,5.42-4.3-10,4.53-19.74,9-28.95,14.39a139.71,139.71,0,0,1-50.31,18c-19.33,3-38.51,3.49-57.46-1.09a335.58,335.58,0,0,1-39-12.13c-27.35-10.26-55.35-15.44-84.58-13.59-14.27.9-28,3.67-40.89,10.15-8.76,4.4-17.29,10-26.61,12.4-21,5.5-41.05,3.09-59.28-10.24-6-4.35-11.25-11.36-19.82-10.25-7,.9-13.73,3.38-20.67,4.68-5.12,1-10.58,2.3-15.53,1.45-13.51-2.33-24.65-9.83-34.54-18.94C45.32,315.64,34.38,304.67,23.17,294,16.68,287.82,9.72,282.45,0,283Z"/><path class="cls-2" d="M0,414V403c3.52.69,7.18,1,10.54,2.15,8,2.76,16.12,5.39,23.72,9.05,12.54,6.05,25.32,11.94,36.85,19.62C82.4,441.34,93.56,448.2,107.34,449a30.06,30.06,0,0,0,12.38-1.95c6-2.31,11.54-2.91,17.35-.13,9.3,4.45,18.73,8.65,27.87,13.4a46.78,46.78,0,0,0,34.83,3.91c11.28-3.15,22.68-7.25,32.76-13.11,23.4-13.61,48.86-17.65,75.12-18.78,26.49-1.14,51.62,6.2,76.94,12.69,16.37,4.19,33.08,7,49.65,10.45,24.68,5.07,48.22-1.59,71.74-7.4,11.69-2.89,21.28-10,30-18.11v24a159.09,159.09,0,0,1-57.59,18.59c-21,2.69-42.16.93-63.25-1.17-25.33-2.52-50.7-5.11-76.1-6a178.66,178.66,0,0,0-43.64,3.84c-23.16,5-44.55,15.31-65.42,26.45-20.39,10.88-41,12.64-62.14,2.17a163.57,163.57,0,0,0-16.65-6.72c-9.38-3.42-18.85-5.68-28.47-.7-6.59,3.41-13.93,4.26-20.31,1.3a410.71,410.71,0,0,1-38.62-20.49c-16.92-10.19-34.29-19.09-53.54-23.84-2.51-.62-5.24-.36-7.87-.51.28,1.29.63,1.74,1,1.77,14.32.91,27.1,6.71,39.44,13.26,15.83,8.41,31.23,17.64,46.82,26.52,11.33,6.45,22.78,9.72,35.51,3.28a21.44,21.44,0,0,1,17.46-1.13c8.41,3.12,16.84,6.22,25.3,9.21,6.41,2.27,12.74,5.27,19.36,6.32,15.86,2.52,30.36-2,44.63-9.14,16.92-8.45,34.33-16,51.93-23,16.18-6.39,33.66-6.06,50.74-6.82,25.53-1.13,50.79,2.49,76.1,5.37,28.31,3.21,56.69,5.81,84.86-1.38,14-3.58,27.89-7.62,40.44-15.17V582c-1.37-.54-2.77-1-4.12-1.61-7.28-3.2-14.29-7.5-21.9-9.39-12.67-3.15-25.72-4.81-38.63-7a141.48,141.48,0,0,0-15.83-2.11c-35.77-1.94-71.19,2-106.3,8-16.29,2.78-32.08,8.61-48,13.3-14.35,4.22-28.48,9.22-42.92,13.06-13.47,3.59-27.18,6.36-40.87,9.05-12.43,2.43-24.93,4-37.61.73a231.93,231.93,0,0,0-26.37-5.22c-12.55-1.68-25.06-2-37.64,1.31-7.27,1.9-15.09,2-22.68,2.18-3.7.09-7.41-1.79-11.18-2.28a96.27,96.27,0,0,1-39.11-13.89c-10.2-6.38-21.12-7.49-32.5-7.41-3.44,0-6.88.81-10.32,1.25V545a28.34,28.34,0,0,1,4.83-1c11.38-.36,21.51,3.92,31.26,9.06C49.17,560,62,567.4,75,574.35c6.59,3.52,13.68,3.83,20.88,1.88,6.1-1.65,12.12-4,18.33-4.7,18.79-2,37.46-2.18,55.77,4.18a125.18,125.18,0,0,0,66.5,4.17c18-3.64,35.76-9.33,52.95-15.87,19.3-7.35,38.28-14.57,59-17.81,26.71-4.18,53.31-4.66,80.13-3.39,19.59.93,39.23,2.53,58.79,2,15.75-.45,31.43-3.68,47.13-5.67,0-.61,0-1.22,0-1.83a28.33,28.33,0,0,0-4.42,0c-7.21,1.15-14.41,2.42-21.62,3.62-23.69,3.94-47.43,2.68-71.16.6-24.45-2.14-48.89-2.63-73.28.46-22.45,2.84-44.44,7.22-65.67,15.83A455.64,455.64,0,0,1,243,576.07c-24.78,6.51-49.81,5.42-74.22-2.73-18-6-36.31-6-54.78-3.69a55,55,0,0,0-12,3.13c-14.56,5.33-27.46.65-39.93-6.42-8.53-4.83-16.65-10.47-25.38-14.9C25.23,545.67,13.53,540.07,0,543V489a10.86,10.86,0,0,0,.55-2.39q.21-34.39.31-68.8A17.43,17.43,0,0,0,0,414Zm535.19,86.77c-.39-.66-.78-1.32-1.16-2a28,28,0,0,1-3.51,2.18c-3.76,1.67-7.46,3.63-11.4,4.67-5.13,1.34-10.5,1.7-15.69,2.82-21.06,4.57-42.17,8.09-63.85,5.48-11.89-1.42-23.78-3.06-35.72-3.75-25.91-1.5-51.85-3.29-77.76-.07-5.24.64-10.71,1.14-15.56,3-26.17,10.15-52,21.12-78.3,31a77.52,77.52,0,0,1-57.51-.54c-5.71-2.28-11.61-4.11-17.22-6.62-18.36-8.23-36.46-4.88-54.38,1.23-7,2.39-13.56,2-19.77-1.36-7.88-4.29-15.29-9.43-23.14-13.78C48.9,516.77,37.5,510.58,25.83,505c-4.06-1.95-9-2.06-13.6-2.83-1-.16-2.06.47-3.09.73l.06,1.25c12-.79,22.15,4.59,32,10,13.09,7.22,25.7,15.31,38.56,22.94,7.82,4.63,15.81,5.92,24.8,2.74,17.27-6.09,34.82-9,52.47-1,3,1.36,6.22,2.37,9.26,3.72,22.95,10.21,46.23,11.79,69.85,2.53,15.15-5.94,30.19-12.17,45.31-18.18,11.57-4.61,22.85-10.71,34.87-13.2,13.88-2.88,28.42-2.9,42.7-3.45,9.45-.37,19,.31,28.43.89,9.8.6,19.55,1.75,29.34,2.49,14.93,1.13,30,3.84,44.77,2.74,20.32-1.51,40.47-5.69,60.58-9.32C526.73,506.23,530.85,502.93,535.19,500.77Z"/><path class="cls-2" d="M38,724H0V705c11.63,2.11,23.22,2.2,34.43-2,13.83-5.13,28.18-6,42.69-6.12,11.13-.1,22.39.61,33.34-.87,12.52-1.68,24.77-5.39,37.71-8.35-2.1-.26-4-.87-5.74-.64a80.21,80.21,0,0,0-12.72,2.32A127.17,127.17,0,0,1,87,694.74c-19.48-1-38.76.5-57.5,7.26C20,705.41,9.82,705.08,0,702V652a143.46,143.46,0,0,0,38.21,6.51c12.74.38,25.57.62,38.15,2.44a101.93,101.93,0,0,0,38.84-1.62,175.8,175.8,0,0,1,44.43-4.58c13.12.36,26.19,4.24,39.17,7.1,25.61,5.65,51.35,9.59,77.68,7.37q15.66-1.32,31.28-3.26a92.69,92.69,0,0,0,14.64-3.07c14.18-4.22,28.12-9.31,42.45-12.93,11.86-3,24.08-5.82,36.23-6.22,28.63-.94,56.57,4,83.89,12.82,18.22,5.87,34.84,14,47.59,28.76a5.7,5.7,0,0,0,1.72.95c-8.57-9.89-17.25-19.44-29.68-24.44-18.4-7.4-37-14.08-56.8-16.52-15-1.85-30.09-3.23-45.17-3.92-17.92-.82-34.78,5.23-51.75,9.83-10.9,2.95-21.3,8.18-32.32,10.18-17.31,3.13-34.93,5.57-52.49,6.13-21.62.69-43.14-2.19-64.28-7.3-16.8-4.05-33.65-9.2-51-8.13a265.12,265.12,0,0,0-42.3,6.55,70.61,70.61,0,0,1-26.1.82c-11.66-1.65-23.46-4.07-35.11-3.63A140.77,140.77,0,0,1,0,650V621c3.49,0,7.1.63,10.46,0,11-2.16,20.66.92,30.09,6.06a23.19,23.19,0,0,0,6.05,1.83q5.77,1.29,11.59,2.35c7,1.27,14.06,3.74,21,3.37a145.29,145.29,0,0,0,29.33-5.08c15-4,30.05-5.75,45.42-3.11,15.71,2.7,31.35,5.83,47.1,8.32,10,1.58,20.22,3.75,30.19,3.12,15.7-1,31.57-2.89,46.84-6.61,28.88-7.05,57.35-15.76,86-23.6a155.57,155.57,0,0,1,54.42-5.26c16.9,1.44,33.71,3.88,50.56,5.91,10.72,1.29,21.69,1.84,31.39,7.23,8.7,4.83,17.09,10.2,25.65,15.28,1.6,1,3.34,1.65,5,2.46l.46-1.15c-1.77-1.14-3.54-2.29-5.32-3.4-7.19-4.48-14.22-9.27-21.63-13.36-10.69-5.89-22.51-7.72-34.53-8.91-19.2-1.91-38.29-5-57.52-6.27-25.6-1.65-50.18,5.17-74.6,11.74-14.12,3.79-27.89,8.85-42,12.78-31,8.66-62.19,14.6-94.55,8.22-13.86-2.73-28-4.21-41.79-7.11-14.39-3-28.54-4.09-42.92-.2-9.3,2.51-18.69,4.89-28.18,6.49-17.63,3-33.79-3.85-50.23-8.51-5.08-1.45-10-4-15.17-4.5C15.52,618.32,7.73,619,0,619V588c1.28-1.25,2.39-3.31,3.86-3.61,13.61-2.8,26.64-1.69,38.74,6,4.61,2.93,9.39,6.15,14.55,7.53,13.28,3.54,26.79,6.3,40.28,9,3,.59,6.27-.2,9.36-.7,8.35-1.36,16.63-3.77,25-4.17,13.81-.68,27.44,1.18,41,4.61,8.92,2.25,18.53,3.9,27.57,3a294.36,294.36,0,0,0,44.1-7.91c19.14-4.81,37.92-11,56.9-16.52,16-4.62,31.78-9.84,48-13.36a279.32,279.32,0,0,1,40.51-5.21c21.37-1.42,42.82-2.55,64.23-2.44,11.19.06,22.31,3.76,33.55,4.49a92.63,92.63,0,0,1,40.22,11.89A71,71,0,0,0,536,584V724H497c-5-2.38-9.85-5.94-15.14-6.91-15-2.76-30.2-4.38-45.29-6.62-22.59-3.35-44.69-.21-66.82,4.24-15.63,3.15-31.39,6.45-47.23,7.47-14.52.93-29.31-.35-43.82-2s-28.67-6-43.15-7.55a352.12,352.12,0,0,0-49.32-2.17c-17.9.62-35.68,3.93-53.58,5-14.89.92-29.88.34-44.82.42-4,0-8-.32-11.91.08C62,717.36,48.06,719,34.14,720.64c-.45.05-.82.66-1.19,1C34.84,722.5,36.42,723.25,38,724Zm491.12-6.64.45-1c-1.88-2-3.66-4.06-5.66-5.91-3.14-2.91-6-6.49-9.71-8.37-18-9.12-36.41-17.14-57-18.61-6-.42-12.06-.59-17.84-1.93-13.43-3.12-27-5.08-40.57-2.67C383.33,681.61,368,685.3,352.66,689c-10.14,2.44-19.94,6.65-30.18,8.2-13.09,2-26.73,4.16-39.66,2.53-28.15-3.55-56-9.63-84-14.3a243.41,243.41,0,0,0-27.76-2.63c-4.17-.21-8.4,1-12.6,1.63l.19,1.39c1.78,0,3.55,0,5.32,0,10.26.32,20.69-.38,30.75,1.21,22.81,3.62,45.44,8.34,68.13,12.67,27.55,5.25,54.61,3,81.27-5.26,8.25-2.55,16.35-5.65,24.7-7.79,17.61-4.53,35.38-8.16,53.74-5.55,6.4.91,12.74,2.58,19.17,3,18.39,1.12,36.38,4.07,53.38,11.33,11.05,4.71,23.17,8,29.88,19.54C525.69,716.13,527.71,716.57,529.12,717.36Z"/><path class="cls-2" d="M0,214V115c7.05,1.83,14.54,2.68,21.07,5.66,27.14,12.39,50.17,30.41,70.3,52.44a77.93,77.93,0,0,0,19.1,15c9.27,5.22,19.24,9.13,30.5,5.35,16.57-5.57,30.78-.52,44.29,9.62a63.92,63.92,0,0,0,20.37,9.9c12.48,3.59,24.77.4,36.59-4.1,7-2.66,14.19-4,21.53-2.61,10.93,2.12,22,4,32.57,7.33,30.83,9.7,60.65,8.2,89.68-6.24,21.91-10.9,44-21.33,67.5-28.47,18.73-5.69,37.49-9,56.79-2.39,8.45,2.87,17.13,5,25.71,7.49v80c-3.54-.79-7.07-2.2-10.63-2.26-18-.34-34.87,4.37-50.82,12.57-15.22,7.83-30.23,16.12-45.74,23.3-23.86,11.05-48.16,7-72.15.08-7.47-2.13-14.4-6.07-21.78-8.61-9.72-3.35-19.58-6.35-29.49-9.08-5.38-1.49-11-3.12-16.5-2.92-10.61.38-21.16,2.07-31.75,3.13-12.58,1.25-24.41,4.65-35.31,11.29-2.43,1.48-5.64,1.95-8.55,2.3-4.79.56-9.65.51-14.45.94-12.17,1.11-23.56-.6-33.54-8.33-15.13-11.71-31.94-14.82-50.35-9.74a30.74,30.74,0,0,1-21.89-2c-9.48-4.46-16.24-12.3-22.64-20-10.5-12.57-22.56-22.63-37.72-28.7C21.91,221.69,10.9,218,0,214Zm87.28,11.71c-4.45-4.48-8.88-9-13.37-13.44-6.83-6.77-13.21-14.11-20.66-20.11-13.43-10.81-28.32-18.23-46.54-14.39a33.84,33.84,0,0,0,7.63,1c20.84-.41,35.55,11.21,49.31,24.82,7.67,7.59,15.4,15.1,23.11,22.65q6.84,5.39,13.68,10.78c10.37,8.15,21.6,10.65,34.11,5.36,5.71-2.41,11.71-3,17.56-.79,8,3,16.45,5.56,23.76,9.9,9.06,5.39,18.26,8,28.52,6.42,6.4-1,12.68-2.68,19-4,10.72-2.26,21.36-5.43,32.21-6.54,23.7-2.43,47,2.38,69.46,8.72,18.31,5.18,37.07,5.82,55.36,9.93a13.25,13.25,0,0,0,6.44-.22c9.85-2.95,19.92-5.44,29.33-9.46,11.26-4.81,21.86-11.17,32.9-16.55,9.71-4.72,19.25-10.38,29.53-13.18,15.92-4.32,32.41-6,48.73-.7a38.52,38.52,0,0,0,5.38.93,8,8,0,0,0-4.21-2.7c-15.53-5.39-31.36-4.28-46.75-.41-9.52,2.4-18.4,7.41-27.48,11.45-8.19,3.65-16.33,7.44-24.36,11.42-6.7,3.32-13,7.46-19.86,10.4-9.64,4.14-19.69,7.62-30.42,6.74a224.6,224.6,0,0,1-25.17-3.47c-13.5-2.68-26.86-6.06-40.32-8.91-6.83-1.44-13.87-2-20.62-3.64a106.71,106.71,0,0,0-41.17-1.87c-13.12,1.88-26,5.55-39,8.48-13.56,3.07-26.64,3.74-38.52-5.59a42.86,42.86,0,0,0-11.53-5.89c-9.92-3.68-19.95-6.5-30.52-2-11,4.71-21.19,2.21-30.64-4.36C97.17,233,92.26,229.32,87.28,225.71Z"/><path class="cls-2" d="M0,68V0H36L61.06,12,60.94,12c7.25,4.61,14.9,8.69,21.63,14a155.49,155.49,0,0,1,19.55,18.33c8.22,9.11,15.31,19.25,23.58,28.31,11.61,12.74,26.75,19,43.72,20.17,7.22.5,13.76,1.69,19.53,6.22,2.87,2.26,6,4.23,9,6.3,10.09,6.93,20.54,11.41,33.5,9.85a118.54,118.54,0,0,1,31.71.11c16.9,2.61,32.74,2.34,48.45-5.6,21.95-11.1,44.4-21.22,66.65-31.75C396.91,69,415.57,60,436.39,57.49c9.39-1.14,19-.67,28.32-2.15a104.92,104.92,0,0,1,44.48,2.1c9,2.43,17.87,5,26.81,7.56V99c-12.78-2.87-25.44-6.7-38.38-8.31-10.45-1.3-21.24-.17-31.86.3a190.44,190.44,0,0,0-85.15,24.39c-20.22,11.25-40.59,22.22-61,33.19a36.76,36.76,0,0,1-8.88,3.19c-15.47,3.68-30.47,1-45.09-4.16-12.15-4.3-24.21-5.61-36.66-1.46-9.87,3.29-19.5,3.25-28.86-2.19-11.32-6.58-23-12.59-34.24-19.27-7.59-4.51-15.29-5.14-23.94-4.31-7.21.7-15.38,1.1-21.5-3.86C111,108.79,101.92,100.43,93,92c-8.08-7.66-15.7-15.8-23.57-23.69C56.32,55.16,39.7,47,24.29,37.21a30.42,30.42,0,0,0-16.41-5c6.48,3,14.27,6.14,21.68,10.05a151.81,151.81,0,0,1,19.1,11.83c8.57,6.29,17.19,12.68,24.85,20C85.28,85.38,96.12,97.6,107.6,109.17c10.28,10.34,22.38,15.54,37.45,13.17,4.85-.76,10.69-.35,15,1.72a325.12,325.12,0,0,1,33.55,18.43c11.89,7.46,23.92,10.26,37.43,5.34a41.84,41.84,0,0,1,25.08-.89c9.66,2.47,19.16,5.72,28.94,7.52,11.59,2.14,23.43,1.91,34.24-3.54,14-7,27.73-14.52,41.34-22.24,22.33-12.67,44.49-25.71,70-31,8.77-1.82,17.75-2.64,26.64-3.92,26.81-3.86,53.12-2.3,78.69,7.28v39c-20.5-9.79-42-13.63-64.52-10.12-12.13,1.89-24.06,5.11-36.21,6.89-20,2.95-37.09,12.51-53.53,23.38-19.56,12.92-39.85,24.09-63,29.08-8.55,1.84-17.13,2.54-25.64-.31s-17-5.89-25.55-8.49c-9-2.73-17.42-8.23-27.37-6.4a101.33,101.33,0,0,0-17.32,4.5c-12.1,4.55-22.06,2.07-30.51-7.61-10.55-12.09-24.36-19.21-39.48-23-8.32-2.08-17.41-1.25-26.16-1.38-10.16-.14-19.43-2.13-26.81-9.86-12.5-13.12-24.67-26.62-37.91-39-10.05-9.38-21.34-17.58-34.64-22.2-6.43-2.24-13-4.16-19.53-6.06C5.26,68.74,2.6,68.48,0,68Z"/><path class="cls-2" d="M0,114V69c6.81,2.08,13.52,4.57,20.44,6.17,15.34,3.54,27.64,12.67,39,22.52a381.74,381.74,0,0,1,36.38,36.9c9,10.27,19.51,14.25,32.61,13.76,6.95-.26,14.18-.91,20.85.56a83.24,83.24,0,0,1,44.29,25.37c7,7.57,15.36,10.79,25.6,7.37,4.26-1.42,8.51-2.9,12.84-4.08,7.35-2,14.75-2.62,22.09.09,8,3,15.79,6.31,23.89,8.79,11.05,3.39,21.91,8.35,34,6,18.41-3.56,36.06-9.12,52-19.28,10.25-6.52,20.77-12.61,30.94-19.25,18.06-11.79,38.89-15.22,59.28-19.86,28.06-6.4,55.49-4.7,81.78,7.93v40c-8.93-2.53-18.08-4.49-26.75-7.72-16.93-6.32-33.72-3.75-50.09.83-23.76,6.65-46.4,16.42-68.32,27.83-17.49,9.1-36,14.61-55.93,14.9-15.39.22-29.87-4.16-44.54-8-18-4.72-35.73-8.94-54.65-1.17-17.2,7.07-34.8,5.35-49.95-7-13.56-11.06-28.28-15.62-45.58-10.29-4.32,1.33-9.46,2-13.76,1A62.9,62.9,0,0,1,95,174.84c-13-13.36-25.38-27.45-41.42-37.32-11.74-7.22-23.73-14.14-36.11-20.16C12.32,114.86,5.86,115,0,114Z"/><path class="cls-2" d="M536,2V25c-4.47-1.22-8.87-3-13.42-3.56-14.47-1.83-29-4.58-43.5-4.41-16.38.19-32.77,2.8-49.08,5-34,4.5-65.95,14.53-95.6,32.54C311.68,68.34,287.26,77,259.71,68.72c-8.44-2.54-17.46-2.23-25.57,2.92-8.73,5.54-18.32,5.39-28,3.43-13.66-2.77-27.32-5.6-40.9-8.71-2.78-.64-5.94-2-7.71-4.13C148.81,52,140.61,41.32,132,31c-4.08-4.89-8.68-9.37-13-14l.1.08a27,27,0,0,0-3.24-3.57C109.92,8.91,103.94,4.48,98,0h50c9.55,5.59,14.5,15.11,19.45,24.21,5.59,10.31,12.59,18.42,24.29,21a159.81,159.81,0,0,0,21.19,2.82c6.4.53,11.95-1.8,17-5.85,8-6.38,16.78-11,27.55-8.82,6.68,1.36,13.37,2.76,19.89,4.7,10.54,3.14,20,1.66,28.68-5.16,3.4-2.68,6.75-5.43,10.3-7.9,4.48-3.12,8.85-6.6,13.77-8.81,10.35-4.66,21-8.6,31.56-12.84a8.59,8.59,0,0,0-4.65.22c-7.2,2.92-14.1,6.9-21.55,8.79-8.46,2.16-14.85,7.15-21.5,12.06-3.21,2.37-6.35,4.84-9.51,7.29C297.16,37.42,289,39,280,36.86c-4.52-1.09-9.24-1.61-13.57-3.2-14.73-5.39-27.24-1.64-39,7.92-3,2.45-7.6,4.33-11.37,4.19a149.18,149.18,0,0,1-27.57-3.38c-8.33-1.91-14.1-8.45-18-15.67C165.24,16.82,159.6,7.39,151,0h42c7.53,3.31,14.93,7,22.63,9.81,6.16,2.27,12.74,1.37,18.5-1.39C244.21,3.59,254,5,264.25,7.58a70.58,70.58,0,0,0,18.67,2.33C290.58,9.76,297.56,7,302,0H451a33.62,33.62,0,0,0,4.82.79c12.28.36,24.57.73,36.86.9C507.12,1.9,521.56,1.91,536,2Z"/><path class="cls-2" d="M536,27V64c-13.09-3.65-26-8.19-39.34-10.65-8.82-1.63-18.19-.49-27.3-.17-6.8.24-13.57,1.21-20.36,1.77-3.64.29-7.34.11-10.94.65-17.57,2.66-34.17,8.39-50.18,16-21.19,10.06-42.44,20-63.65,30-7.82,3.68-15.28,8.62-23.49,10.84-11.37,3.07-23.13,3.25-35.11,1.27a116.6,116.6,0,0,0-31.75-1.21c-10.55,1.19-20.07.94-29-5-5.54-3.7-11.21-7.18-16.65-11A28.22,28.22,0,0,0,172,90.79c-23.75-.34-41-12.46-55.33-30.13-8.37-10.31-16.36-21.12-25.92-30.22-8.44-8-18-15.38-29.8-18.48l.12.08a43.07,43.07,0,0,0-4.65-3.39C51,5.68,45.48,2.87,40,0H96c5.78,4.47,11.52,9,17.35,13.4,1.79,1.36,3.79,2.44,5.7,3.64L119,17c10.72,13.74,21.29,27.6,32.24,41.14,3.82,4.72,8,9.17,14.71,10.45,12.72,2.41,25.35,5.3,38,8.19,12,2.76,23.27,1.77,34.19-4.52,3.53-2,8.25-2.73,12.41-2.71a74.81,74.81,0,0,1,15.75,2.26,70,70,0,0,0,28.21.88c15.34-2.84,29.26-9.35,42.28-17.3C353.65,45,371.43,36.86,390.53,32c38.34-9.7,77.09-16.8,116.9-11.62C517.07,21.66,526.48,24.75,536,27Z"/><path class="cls-2" d="M536,302v27c-3.28,1.94-6.47,4-9.85,5.8-9.13,4.75-18.6,8.92-27.45,14.14a105,105,0,0,1-33.84,12.76c-22.3,4.32-44.6,6.24-66.83.84a332.19,332.19,0,0,1-39-12.1c-28-10.59-56.66-15.9-86.53-13.5-8.23.66-16.75,1.61-24.44,4.36-11.69,4.18-22.64,10.37-34.16,15.09-6.07,2.48-12.61,4.85-19.06,5.21-18,1-35-2-49.63-14.06-5.4-4.45-11-10.47-19.28-9-6.46,1.19-12.7,3.58-19.16,4.86-5.09,1-10.56,2.27-15.52,1.43-13.51-2.31-24.64-9.83-34.53-18.94-11.38-10.49-22.28-21.5-33.54-32.12C16.69,287.71,9.83,282.09,0,283V261a62.47,62.47,0,0,1,40,14.52c10.6,8.78,20.54,18.4,31.4,26.84,9.78,7.6,21,10.93,33.67,7.61a79.63,79.63,0,0,1,18.22-2.6c7.93-.18,15.05,2,21.22,8,15.41,15,34,18.06,54.1,11.9,9-2.77,17.47-7.3,26.28-10.77,16.65-6.56,33.87-12,51.79-11.15a201.51,201.51,0,0,1,44.14,6.93c14,3.86,27.36,10.17,40.54,16.38,13.71,6.45,27,13.67,42.46,15.11,20.05,1.86,38.52-1,54.91-14.18a229.19,229.19,0,0,1,33.83-22.82C506,299.36,520.61,295.23,536,302Z"/><path class="cls-2" d="M196,0H300a23.16,23.16,0,0,1-19.58,8.09C274,7.73,267.68,6.14,261.33,5c-8.17-1.47-16.3-3.35-24.4.45C222.15,12.39,208.84,7.89,196,0Z"/><path class="cls-2" d="M0,1204.38v69.79c2.45-.45,5.08-.46,7.32-1.43,11.37-4.91,22.83-9.66,33.86-15.31,5.74-2.93,10.76-7.47,15.92-11.53,3.64-2.87,7-6.16,10.46-9.26L84,1218.5c.8-1.19,1.37-2.74,2.45-3.52,9.41-6.77,19.46-9,30.78-5.61,16.2,4.82,31.61,1.8,45.05-8.4,10.47-8,21.4-12.37,34.36-11.15,4.64.43,9.37.19,13.93,1a83.62,83.62,0,0,1,14.2,4.09c5.92,2.2,11.48,5.86,17.54,7.17,11.36,2.47,23,4,34.5,5.36,6.74.8,13.94,2.15,20.31.55a312.54,312.54,0,0,0,41.82-13.61c12.58-5.14,24.95-10.58,38.42-12.54,13.75-2,27.77-3.45,41.1,1.11,11.13,3.8,21.66,9.64,32.29,15,12.73,6.37,24.94,14,38,19.5,15.08,6.38,30.95,9.49,47.29,4.67v-35.42c-5.43,1.2-10.91,3.57-16.27,3.31a66.19,66.19,0,0,1-19.84-4.49c-14.87-5.61-27.85-15-39.59-25.68-16.94-15.47-36.5-18.67-57.82-16.35-14.41,1.57-26.84,8.6-39.7,14.74-14,6.69-28.2,13.12-42.79,18.18-10.33,3.57-21.38,5.19-32.24,6.69a79,79,0,0,1-21.88.08c-22.25-3.2-43-11.77-63.47-21-19.44-8.7-42.8-5.42-58.27,11-2.85,3-7.06,5.11-11,6.47-10.05,3.45-20.06.95-30-1.34-3-.7-6.23-1.74-9.21-1.36-14.42,1.81-25.65,10-35.4,20.56-13.72,14.86-28.75,27.39-48.85,31.35-2.65.52-5.43.31-8.16.44l0-1.36a6.05,6.05,0,0,1,1.26-.43c13.43-1.08,25.78-5.43,36.24-14.34,11.05-9.41,21.31-19.85,32.59-28.93,9.63-7.74,20.73-11.24,33.24-7.84a80.6,80.6,0,0,0,17.72,2.73c8.33.35,15.75-1.88,22.17-8.46,11.69-12,26-16.55,42.5-14.67,13.09,1.5,24.29,8.09,36.12,13,18.06,7.48,36.59,13.06,56.13,12.53,8.87-.23,17.64-3.26,26.54-4.25,21-2.32,39.55-11.54,57.83-21.61,16.84-9.29,34.23-15.69,53.78-15,14.51.56,27.26,4.77,39,13.74,11.5,8.82,23.24,17.35,35.38,25.17a53.65,53.65,0,0,0,29.5,8.49c4.86,0,9.71-1.6,14.57-2.48V1053.34a24.22,24.22,0,0,1-2.45-1.49c-5.34-4.07-10.19-9.27-16.1-12-8.39-3.89-17.62-5.79-26.38-8.87-21.25-7.47-43.06-7.29-64.6-3.27-20.88,3.89-41.4,9.89-62,15.25-23.73,6.18-47.51,9-72.14,6.5-19.18-2-37.22-6.31-54.43-15.33a296.25,296.25,0,0,0-33.78-15.36c-12.29-4.58-24.9-3.73-36.91,2-9.69,4.59-19.25,9.45-28.84,14.28-6.58,3.31-13,3.49-19.65,0-2.32-1.21-5.14-2.52-7.55-2.23-10.07,1.23-19.92,3-28.9,8.83-14.09,9.11-28.19,18.41-43.08,25.91-12.47,6.27-26.07,10.08-39.17,15V1120c3.51-.84,7.23-1.17,10.49-2.63,14.58-6.5,26.2-17.47,38.36-27.7,5.6-4.7,12.08-8.26,18.16-12.33,6.6-4.24,13-8.78,19.83-12.63,8.17-4.63,16.21-4.94,24.28,1.23s16.76,4.59,25.18.77c7.62-3.45,14.91-7.7,22.57-11,11-4.83,22.48-8,34.41-3.63,7.36,2.67,14.95,5.17,21.7,9.11,18.69,10.89,39.11,16.34,59.59,21.48s41.05.75,61.29-3.16c10.25-2,20.31-5.33,30.26-8.68,18.41-6.2,37.06-11.1,56.37-12.91,9.76-.91,19.68-3.16,29.26-2.13a204.64,204.64,0,0,1,73.83,22,50,50,0,0,1,5.69,4c-.25.35-.49.71-.73,1.06-.79-.45-1.54-1-2.36-1.34-10.5-4.76-20.79-10.15-31.58-14a151.15,151.15,0,0,0-27.6-6.69c-10.46-1.67-21.13-3.29-31.64-2.87a199.3,199.3,0,0,0-37.05,5.13A540.31,540.31,0,0,0,347.4,1078c-14.73,5.07-29.88,6.57-45,8.44-14,1.73-27.79-1.11-41.24-5.42-10.63-3.4-21.45-6.29-31.82-10.41-10.67-4.25-20.91-9.68-31.31-14.65-11.66-5.56-23.41-4.55-34.91.12-8.65,3.51-17,8-25.43,12-9.23,4.35-18.59,6-27.5-.4-6.84-5-13.64-5.75-21-2-1.94,1-4,1.76-5.9,2.78-5.46,2.88-10.88,5.83-16.32,8.75-5.76,4.6-11.7,9-17.24,13.85-12.34,10.85-24.51,22-39.66,28.45-3,1.3-6.67,1-10,1.51v46.87c2-.86,4-1.63,5.93-2.61,9.94-5.06,17.13-13.6,24.93-21.39,16-16,32.09-31.92,53.3-40.36,5.17-2.06,10.77-3.93,16.21-4,6-.13,12.19,1.62,18.2,3a29.76,29.76,0,0,0,21.8-3.08c11.71-6.64,24.35-9.19,37.36-9.55a55.27,55.27,0,0,1,18.55,2.94c11.71,3.87,23.08,8.86,34.7,13.08a216.23,216.23,0,0,0,23.84,7.58,169.05,169.05,0,0,0,49,4.57,210.56,210.56,0,0,0,43.19-7.35c17.17-4.67,33.94-11,51.2-15.24,12.56-3.07,25.7-5.65,38.46-5.15,15.64.61,31.36,3.73,46.64,7.52,14.5,3.59,28.52,9.32,42.67,14.37,3,1.08,5.71,3.26,8.56,4.94-.23.4-.45.8-.67,1.21-3.11-1.45-6.15-3.15-9.36-4.31-11.13-4-22.33-7.85-33.51-11.75-15.68-5.47-31.9-9.48-48.27-9.83a190.6,190.6,0,0,0-74.24,13.43,188.66,188.66,0,0,1-27.68,8.73,258.31,258.31,0,0,1-43.94,5.73c-16.52.8-32.3-1.9-47.71-6.43-18.2-5.35-35.81-12.86-53.68-19.44-14.22-5.23-28.27-2.14-42.08,1.61-7,1.9-13.48,5.89-20.42,8.2-10.18,3.38-20-1.42-30.07-2.1-4.34-.3-9.08-.34-13.09,1.13-17.53,6.39-32.55,17.08-45.87,30.51-8.62,8.68-17,17.68-26.29,25.54-5,4.28-11.7,6.48-17.63,9.61v33.34c6,0,11.58-1.64,16.18-5.78,4.4-4,8.73-8,12.79-12.37,13.28-14.18,26.6-28.47,43-38.66,10.34-6.42,21.61-12,34.46-6.84,4,1.62,8.06,3.31,12.21,4.52,7,2,13.55,1.84,19.67-3.36,15.11-12.87,32-20.76,52.12-20a56.68,56.68,0,0,1,24.49,6.19c9.83,5.06,19.63,10.3,29.81,14.52,14.2,5.89,29.32,5.1,44.32,5.76,20.59.89,39.92-4.2,59.17-10.54,16-5.27,31.81-11.33,48-15.78,16.66-4.56,33.84-6,51-2.78,12.1,2.27,24.69,3.62,35.94,8.31,15.82,6.6,30.62,15.87,45.79,24.13,2,1.1,3.62,3,5.42,4.48-10-4.72-19.74-9.35-28.95-15a136.3,136.3,0,0,0-50.31-18.74c-19.33-3.08-38.51-3.64-57.46,1.13a327,327,0,0,0-39,12.64c-27.35,10.68-55.35,16.08-84.58,14.15-14.27-.94-28-3.81-40.89-10.56-8.76-4.59-17.29-10.38-26.61-12.93-21-5.72-41.05-3.21-59.28,10.67-6,4.54-11.25,11.84-19.82,10.68-7-.94-13.73-3.52-20.67-4.87-5.12-1-10.58-2.4-15.53-1.51-13.51,2.43-24.65,10.24-34.54,19.73-11.39,10.91-22.33,22.34-33.54,33.46C16.68,1199.36,9.72,1205,0,1204.38Z"/><path class="cls-2" d="M0,1067.92v11.46c3.52-.72,7.18-1,10.54-2.24,8-2.88,16.12-5.61,23.72-9.43,12.54-6.3,25.32-12.44,36.85-20.44,11.29-7.83,22.45-15,36.23-15.84a29,29,0,0,1,12.38,2c6,2.41,11.54,3,17.35.13,9.3-4.63,18.73-9,27.87-13.95,11.19-6,23.11-7.48,34.83-4.07,11.28,3.28,22.68,7.55,32.76,13.65,23.4,14.18,48.86,18.38,75.12,19.56,26.49,1.19,51.62-6.45,76.94-13.21,16.37-4.37,33.08-7.34,49.65-10.89,24.68-5.29,48.22,1.65,71.74,7.71,11.69,3,21.28,10.39,30,18.86v-25a154.85,154.85,0,0,0-57.59-19.37c-21-2.79-42.16-1-63.25,1.23-25.33,2.63-50.7,5.32-76.1,6.27a171.7,171.7,0,0,1-43.64-4c-23.16-5.2-44.55-16-65.42-27.55-20.39-11.34-41-13.17-62.14-2.27a161,161,0,0,1-16.65,7c-9.38,3.56-18.85,5.92-28.47.73-6.59-3.55-13.93-4.44-20.31-1.35a402.53,402.53,0,0,0-38.62,21.34c-16.92,10.61-34.29,19.88-53.54,24.83-2.51.64-5.24.38-7.87.53.28-1.34.63-1.82,1-1.84,14.32-1,27.1-7,39.44-13.82,15.83-8.76,31.23-18.37,46.82-27.62,11.33-6.73,22.78-10.13,35.51-3.42a20.7,20.7,0,0,0,17.46,1.18c8.41-3.26,16.84-6.48,25.3-9.6,6.41-2.36,12.74-5.49,19.36-6.58,15.86-2.63,30.36,2.09,44.63,9.52,16.92,8.8,34.33,16.71,51.93,23.95,16.18,6.66,33.66,6.32,50.74,7.1,25.53,1.18,50.79-2.59,76.1-5.59,28.31-3.35,56.69-6,84.86,1.44,14,3.73,27.89,7.94,40.44,15.8V892.92c-1.37.56-2.77,1.06-4.12,1.68-7.28,3.33-14.29,7.81-21.9,9.78-12.67,3.28-25.72,5-38.63,7.27a137.23,137.23,0,0,1-15.83,2.2c-35.77,2-71.19-2.09-106.3-8.34-16.29-2.91-32.08-9-48-13.86-14.35-4.4-28.48-9.6-42.92-13.61-13.47-3.74-27.18-6.62-40.87-9.42-12.43-2.54-24.93-4.13-37.61-.76a224.26,224.26,0,0,1-26.37,5.44c-12.55,1.75-25.06,2.06-37.64-1.37-7.27-2-15.09-2.09-22.68-2.27-3.7-.09-7.41,1.86-11.18,2.37A94,94,0,0,0,42.82,886.5c-10.2,6.65-21.12,7.81-32.5,7.72-3.44,0-6.88-.85-10.32-1.3v38.54a27.53,27.53,0,0,0,4.83,1c11.38.38,21.51-4.08,31.26-9.44C49.17,915.86,62,908.13,75,900.88c6.59-3.66,13.68-4,20.88-2,6.1,1.72,12.12,4.19,18.33,4.89C133,906,151.68,906.1,170,899.48a120.34,120.34,0,0,1,66.5-4.35c18,3.79,35.76,9.71,52.95,16.53,19.3,7.65,38.28,15.17,59,18.55,26.71,4.35,53.31,4.86,80.13,3.54,19.59-1,39.23-2.64,58.79-2.06,15.75.46,31.43,3.83,47.13,5.91,0,.63,0,1.27,0,1.9a28.33,28.33,0,0,1-4.42,0c-7.21-1.2-14.41-2.54-21.62-3.78-23.69-4.11-47.43-2.79-71.16-.63-24.45,2.23-48.89,2.74-73.28-.47-22.45-3-44.44-7.52-65.67-16.49a441,441,0,0,0-55.29-19c-24.78-6.78-49.81-5.65-74.22,2.84-18,6.27-36.31,6.23-54.78,3.85a53.71,53.71,0,0,1-12-3.27C87.39,897,74.49,901.85,62,909.21c-8.53,5-16.65,10.9-25.38,15.52-11.41,6-23.11,11.87-36.64,8.81v56.25a11.72,11.72,0,0,1,.55,2.49q.21,35.84.31,71.67A18.81,18.81,0,0,1,0,1067.92Zm535.19-90.39c-.39.69-.78,1.38-1.16,2.07a30,30,0,0,0-3.51-2.27c-3.76-1.73-7.46-3.78-11.4-4.85-5.13-1.4-10.5-1.78-15.69-3-21.06-4.76-42.17-8.42-63.85-5.71-11.89,1.49-23.78,3.19-35.72,3.91-25.91,1.56-51.85,3.42-77.76.08-5.24-.68-10.71-1.19-15.56-3.15-26.17-10.57-52-22-78.3-32.28a74.67,74.67,0,0,0-57.51.56c-5.71,2.37-11.61,4.28-17.22,6.9-18.36,8.57-36.46,5.07-54.38-1.29-7-2.49-13.56-2.1-19.77,1.42-7.88,4.47-15.29,9.83-23.14,14.36-11.32,6.53-22.72,13-34.39,18.81-4.06,2-9,2.14-13.6,3-1,.16-2.06-.49-3.09-.77L9.2,974c12,.82,22.15-4.78,32-10.44,13.09-7.52,25.7-16,38.56-23.9,7.82-4.82,15.81-6.17,24.8-2.86,17.27,6.35,34.82,9.33,52.47,1.06,3-1.42,6.22-2.47,9.26-3.88,22.95-10.63,46.23-12.27,69.85-2.63,15.15,6.19,30.19,12.67,45.31,18.94,11.57,4.79,22.85,11.15,34.87,13.75,13.88,3,28.42,3,42.7,3.59,9.45.38,19-.32,28.43-.93,9.8-.63,19.55-1.82,29.34-2.6,14.93-1.17,30-4,44.77-2.85,20.32,1.58,40.47,5.93,60.58,9.71C526.73,971.85,530.85,975.28,535.19,977.53Z"/><path class="cls-2" d="M38,745H0v19.79c11.63-2.2,23.22-2.29,34.43,2,13.83,5.35,28.18,6.23,42.69,6.38,11.13.11,22.39-.64,33.34.9,12.52,1.76,24.77,5.62,37.71,8.7-2.1.28-4,.91-5.74.67a79.28,79.28,0,0,1-12.72-2.41A122.45,122.45,0,0,0,87,775.48c-19.48,1-38.76-.53-57.5-7.56-9.44-3.55-19.63-3.21-29.45,0V820a138,138,0,0,1,38.21-6.78c12.74-.4,25.57-.65,38.15-2.54a97.91,97.91,0,0,1,38.84,1.68,169,169,0,0,0,44.43,4.78c13.12-.38,26.19-4.42,39.17-7.4,25.61-5.88,51.35-10,77.68-7.68q15.66,1.38,31.28,3.4a88.74,88.74,0,0,1,14.64,3.2c14.18,4.39,28.12,9.69,42.45,13.46,11.86,3.13,24.08,6.07,36.23,6.48,28.63,1,56.57-4.17,83.89-13.35,18.22-6.11,34.84-14.6,47.59-30a5.58,5.58,0,0,1,1.72-1c-8.57,10.3-17.25,20.25-29.68,25.46-18.4,7.71-37,14.67-56.8,17.21-15,1.93-30.09,3.36-45.17,4.08-17.92.86-34.78-5.44-51.75-10.24-10.9-3.07-21.3-8.52-32.32-10.6-17.31-3.26-34.93-5.81-52.49-6.39-21.62-.72-43.14,2.28-64.28,7.6-16.8,4.23-33.65,9.59-51,8.48-14.19-.91-28.4-3.54-42.3-6.82a67.76,67.76,0,0,0-26.1-.86c-11.66,1.71-23.46,4.24-35.11,3.78A135.78,135.78,0,0,0,0,822.08v30.21c3.49,0,7.1-.65,10.46,0,11,2.24,20.66-1,30.09-6.32a22.58,22.58,0,0,1,6.05-1.9q5.77-1.35,11.59-2.45c7-1.32,14.06-3.9,21-3.51a140.28,140.28,0,0,1,29.33,5.28c15,4.17,30.05,6,45.42,3.25,15.71-2.81,31.35-6.07,47.1-8.66,10-1.65,20.22-3.92,30.19-3.26,15.7,1,31.57,3,46.84,6.89,28.88,7.34,57.35,16.41,86,24.58a149.58,149.58,0,0,0,54.42,5.48c16.9-1.49,33.71-4,50.56-6.15,10.72-1.35,21.69-1.92,31.39-7.53,8.7-5,17.09-10.63,25.65-15.93,1.6-1,3.34-1.71,5-2.56l.46,1.2c-1.77,1.18-3.54,2.38-5.32,3.54-7.19,4.67-14.22,9.66-21.63,13.92-10.69,6.13-22.51,8-34.53,9.28-19.2,2-38.29,5.25-57.52,6.53-25.6,1.72-50.18-5.39-74.6-12.23-14.12-3.95-27.89-9.21-42-13.31-31-9-62.19-15.21-94.55-8.56-13.86,2.84-28,4.38-41.79,7.4-14.39,3.15-28.54,4.26-42.92.21-9.3-2.61-18.69-5.09-28.18-6.76-17.63-3.09-33.79,4-50.23,8.87-5.08,1.51-10,4.16-15.17,4.68-7.66.77-15.45.12-23.18.07v32.29c1.28,1.3,2.39,3.45,3.86,3.76,13.61,2.91,26.64,1.76,38.74-6.24,4.61-3.05,9.39-6.41,14.55-7.84,13.28-3.7,26.79-6.56,40.28-9.36,3-.62,6.27.21,9.36.73,8.35,1.41,16.63,3.92,25,4.35,13.81.7,27.44-1.24,41-4.8,8.92-2.35,18.53-4.07,27.57-3.18a283,283,0,0,1,44.1,8.23c19.14,5,37.92,11.49,56.9,17.21,16,4.81,31.78,10.25,48,13.92,13.26,3,26.94,4.48,40.51,5.42,21.37,1.48,42.82,2.66,64.23,2.55,11.19-.06,22.31-3.92,33.55-4.68a90,90,0,0,0,40.22-12.38,66.73,66.73,0,0,1,8.18-3.52V745H497c-5,2.48-9.85,6.18-15.14,7.2-15,2.88-30.2,4.56-45.29,6.89-22.59,3.49-44.69.22-66.82-4.41-15.63-3.28-31.39-6.72-47.23-7.78-14.52-1-29.31.36-43.82,2.13s-28.67,6.25-43.15,7.87a337.62,337.62,0,0,1-49.32,2.25c-17.9-.64-35.68-4.09-53.58-5.24-14.89-1-29.88-.36-44.82-.44-4,0-8,.34-11.91-.08-13.94-1.48-27.86-3.2-41.78-4.89-.45,0-.82-.69-1.19-1Zm491.12,6.92.45,1.05c-1.88,2.06-3.66,4.22-5.66,6.15-3.14,3-6,6.77-9.71,8.72-18,9.5-36.41,17.86-57,19.39-6,.44-12.06.61-17.84,2-13.43,3.25-27,5.29-40.57,2.78-15.51-2.86-30.86-6.7-46.18-10.55-10.14-2.54-19.94-6.93-30.18-8.54-13.09-2.06-26.73-4.33-39.66-2.64-28.15,3.7-56,10-84,14.9a232.74,232.74,0,0,1-27.76,2.74c-4.17.21-8.4-1.09-12.6-1.7l.19-1.44c1.78,0,3.55,0,5.32,0,10.26-.33,20.69.4,30.75-1.26,22.81-3.77,45.44-8.69,68.13-13.2,27.55-5.47,54.61-3.1,81.27,5.48,8.25,2.66,16.35,5.88,24.7,8.12,17.61,4.71,35.38,8.5,53.74,5.78,6.4-.94,12.74-2.69,19.17-3.1,18.39-1.16,36.38-4.23,53.38-11.8,11.05-4.91,23.17-8.31,29.88-20.35C525.69,753.2,527.71,752.74,529.12,751.92Z"/><path class="cls-2" d="M184,1233.54c-3.14,2.21-6.16,4.65-9.44,6.6-14.6,8.69-29.63,14.34-46.36,6.27a11.55,11.55,0,0,0-2.92-.58c-7.73-1.43-14.52,1.78-21.37,4.65,8.38-6.34,17.6-8.92,27.39-4.62,12.17,5.35,23.46,2.42,34.62-2.72,6.19-2.85,12.11-6.33,18.15-9.52,3.06-1.07,6.21-3.28,9.15-3,10.05.92,20.08,2.42,30,4.27,10.62,2,21,5.64,31.72,6.76,24,2.52,47.69-2.36,70.44-9.15,18.31-5.46,37.1-6,55.38-10.33a11.53,11.53,0,0,1,5.94.28c10,3.15,20.24,5.75,29.78,10,12.48,5.6,24.35,12.66,36.54,19,5.21,2.69,10.77,4.67,15.81,7.65,11.61,6.84,24.41,7.86,37.15,7.94,8.65,0,17.32-2,25.88-3.12a6.6,6.6,0,0,1-1.28.83c-18.35,7-36.67,4.52-55-.17a17.68,17.68,0,0,1-3.62-1.74c-19-9.82-38-19.84-57.16-29.39-11.15-5.55-22.81-10.1-35.47-9.12a214.23,214.23,0,0,0-26.67,3.77c-13,2.68-25.87,6.19-38.84,9.1-7.47,1.67-15.06,2.71-22.55,4.3a116.54,116.54,0,0,1-46.62.12c-10.12-1.94-20.08-4.78-30.11-7.26S194.3,1230.58,184,1233.54Z"/><path class="cls-2" d="M0,1276.26v103.12c7.05-1.9,14.54-2.79,21.07-5.89,27.14-12.91,50.17-31.68,70.3-54.63a78.58,78.58,0,0,1,19.1-15.65c9.27-5.43,19.24-9.5,30.5-5.56,16.57,5.79,30.78.54,44.29-10a62.89,62.89,0,0,1,20.37-10.31c12.48-3.74,24.77-.42,36.59,4.27,7,2.78,14.19,4.21,21.53,2.72,10.93-2.21,22-4.17,32.57-7.64,30.83-10.1,60.65-8.54,89.68,6.51,21.91,11.35,44,22.22,67.5,29.65,18.73,5.93,37.49,9.32,56.79,2.49,8.45-3,17.13-5.22,25.71-7.8v-83.34c-3.54.82-7.07,2.29-10.63,2.36-18,.35-34.87-4.55-50.82-13.1-15.22-8.15-30.23-16.79-45.74-24.27-23.86-11.51-48.16-7.24-72.15-.09-7.47,2.23-14.4,6.33-21.78,9-9.72,3.49-19.58,6.61-29.49,9.46-5.38,1.54-11,3.25-16.5,3-10.61-.4-21.16-2.16-31.75-3.26-12.58-1.31-24.41-4.85-35.31-11.77-2.43-1.54-5.64-2-8.55-2.39-4.79-.58-9.65-.53-14.45-1-12.17-1.15-23.56.63-33.54,8.68-15.13,12.19-31.94,15.44-50.35,10.15a29.6,29.6,0,0,0-21.89,2.1c-9.48,4.65-16.24,12.81-22.64,20.79-10.5,13.09-22.56,23.58-37.72,29.89C21.91,1268.25,10.9,1272.11,0,1276.26Zm87.28-12.2c-4.45,4.67-8.88,9.36-13.37,14-6.83,7-13.21,14.69-20.66,21-13.43,11.26-28.32,19-46.54,15a32.79,32.79,0,0,1,7.63-1.07c20.84.42,35.55-11.69,49.31-25.86,7.67-7.9,15.4-15.73,23.11-23.59q6.84-5.62,13.68-11.24c10.37-8.48,21.6-11.09,34.11-5.58,5.71,2.52,11.71,3.08,17.56.82,8-3.12,16.45-5.79,23.76-10.31,9.06-5.61,18.26-8.32,28.52-6.69,6.4,1,12.68,2.8,19,4.19,10.72,2.35,21.36,5.66,32.21,6.81,23.7,2.54,47-2.47,69.46-9.08,18.31-5.39,37.07-6.06,55.36-10.35a12.67,12.67,0,0,1,6.44.24c9.85,3.07,19.92,5.67,29.33,9.85,11.26,5,21.86,11.64,32.9,17.24,9.71,4.92,19.25,10.82,29.53,13.73,15.92,4.51,32.41,6.24,48.73.73a37.18,37.18,0,0,1,5.38-1,8,8,0,0,1-4.21,2.81c-15.53,5.61-31.36,4.46-46.75.43-9.52-2.5-18.4-7.72-27.48-11.93q-12.29-5.7-24.36-11.9c-6.7-3.45-13-7.77-19.86-10.83-9.64-4.31-19.69-7.93-30.42-7a214,214,0,0,0-25.17,3.62c-13.5,2.79-26.86,6.31-40.32,9.28-6.83,1.5-13.87,2-20.62,3.79a102.61,102.61,0,0,1-41.17,2c-13.12-2-26-5.78-39-8.84-13.56-3.19-26.64-3.89-38.52,5.82a42.17,42.17,0,0,1-11.53,6.14c-9.92,3.83-19.95,6.77-30.52,2.06-11-4.9-21.19-2.29-30.64,4.55C97.17,1256.44,92.26,1260.3,87.28,1264.06Z"/><path class="cls-2" d="M0,1428.34v70.84H36l25.06-12.55-.12.08c7.25-4.79,14.9-9,21.63-14.53a158.11,158.11,0,0,0,19.55-19.1c8.22-9.49,15.31-20,23.58-29.49,11.61-13.27,26.75-19.77,43.72-21,7.22-.52,13.76-1.76,19.53-6.48,2.87-2.35,6-4.41,9-6.56,10.09-7.21,20.54-11.88,33.5-10.26a113.4,113.4,0,0,0,31.71-.12c16.9-2.72,32.74-2.43,48.45,5.84,21.95,11.56,44.4,22.1,66.65,33.08,18.66,9.2,37.32,18.57,58.14,21.21,9.39,1.19,19,.69,28.32,2.24a100.77,100.77,0,0,0,44.48-2.19c9-2.52,17.87-5.24,26.81-7.87v-35.42c-12.78,3-25.44,7-38.38,8.66-10.45,1.35-21.24.17-31.86-.32-30.3-1.41-58.63-10-85.15-25.4-20.22-11.72-40.59-23.15-61-34.57a35.49,35.49,0,0,0-8.88-3.33c-15.47-3.83-30.47-1.07-45.09,4.33-12.15,4.48-24.21,5.85-36.66,1.53-9.87-3.43-19.5-3.39-28.86,2.27-11.32,6.86-23,13.12-34.24,20.08-7.59,4.69-15.29,5.36-23.94,4.49-7.21-.73-15.38-1.14-21.5,4-9.52,8-18.55,16.75-27.46,25.54-8.08,8-15.7,16.46-23.57,24.68-13.12,13.69-29.74,22.14-45.15,32.39a29.62,29.62,0,0,1-16.41,5.19c6.48-3.1,14.27-6.4,21.68-10.47a153.07,153.07,0,0,0,19.1-12.32c8.57-6.56,17.19-13.22,24.85-20.85,11.77-11.73,22.61-24.46,34.09-36.51,10.28-10.78,22.38-16.19,37.45-13.72,4.85.79,10.69.36,15-1.79a322.32,322.32,0,0,0,33.55-19.2c11.89-7.77,23.92-10.69,37.43-5.57a40.21,40.21,0,0,0,25.08.93c9.66-2.57,19.16-6,28.94-7.83,11.59-2.23,23.43-2,34.24,3.68,14,7.34,27.73,15.13,41.34,23.17,22.33,13.2,44.49,26.79,70,32.33,8.77,1.91,17.75,2.76,26.64,4.09,26.81,4,53.12,2.4,78.69-7.58v-40.63c-20.5,10.2-42,14.2-64.52,10.54-12.13-2-24.06-5.32-36.21-7.18-20-3.07-37.09-13-53.53-24.35-19.56-13.46-39.85-25.09-63-30.29-8.55-1.92-17.13-2.65-25.64.32s-17,6.14-25.55,8.85c-9,2.84-17.42,8.57-27.37,6.66a97.38,97.38,0,0,1-17.32-4.68c-12.1-4.74-22.06-2.16-30.51,7.92-10.55,12.59-24.36,20-39.48,23.95-8.32,2.17-17.41,1.3-26.16,1.43-10.16.15-19.43,2.22-26.81,10.28-12.5,13.67-24.67,27.73-37.91,40.59-10.05,9.77-21.34,18.31-34.64,23.12-6.43,2.33-13,4.34-19.53,6.31A72.94,72.94,0,0,1,0,1428.34Z"/><path class="cls-2" d="M0,1380.42v46.88c6.81-2.17,13.52-4.76,20.44-6.42,15.34-3.69,27.64-13.21,39-23.47A390.35,390.35,0,0,0,95.79,1359c9-10.7,19.51-14.85,32.61-14.33,6.95.27,14.18.94,20.85-.59a82.52,82.52,0,0,0,44.29-26.43c7-7.88,15.36-11.24,25.6-7.67,4.26,1.48,8.51,3,12.84,4.24,7.35,2.08,14.75,2.74,22.09-.09,8-3.07,15.79-6.57,23.89-9.16,11.05-3.53,21.91-8.69,34-6.26,18.41,3.72,36.06,9.51,52,20.09,10.25,6.79,20.77,13.13,30.94,20,18.06,12.29,38.89,15.85,59.28,20.69,28.06,6.67,55.49,4.9,81.78-8.26v-41.67c-8.93,2.64-18.08,4.67-26.75,8.05-16.93,6.58-33.72,3.9-50.09-.87-23.76-6.92-46.4-17.11-68.32-29-17.49-9.48-36-15.22-55.93-15.52-15.39-.23-29.87,4.33-44.54,8.33-18,4.92-35.73,9.32-54.65,1.22-17.2-7.37-34.8-5.57-49.95,7.3-13.56,11.52-28.28,16.27-45.58,10.72-4.32-1.38-9.46-2.09-13.76-1.06A62.34,62.34,0,0,0,95,1317.05c-13,13.92-25.38,28.6-41.42,38.88a414.94,414.94,0,0,1-36.11,21C12.32,1379.53,5.86,1379.34,0,1380.42Z"/><path class="cls-2" d="M536,1497.09v-24c-4.47,1.28-8.87,3.12-13.42,3.72-14.47,1.9-29,4.76-43.5,4.59-16.38-.2-32.77-2.92-49.08-5.17-34-4.68-65.95-15.14-95.6-33.9-22.72-14.38-47.14-23.4-74.69-14.78-8.44,2.64-17.46,2.32-25.57-3-8.73-5.77-18.32-5.61-28-3.57-13.66,2.89-27.32,5.83-40.9,9.07-2.78.66-5.94,2.14-7.71,4.31-8.73,10.66-16.93,21.77-25.55,32.53-4.08,5.1-8.68,9.76-13,14.62l.1-.09a27.19,27.19,0,0,1-3.24,3.73c-5.89,4.74-11.87,9.36-17.81,14h50c9.55-5.83,14.5-15.74,19.45-25.23,5.59-10.73,12.59-19.19,24.29-21.91a152.12,152.12,0,0,1,21.19-2.93c6.4-.56,11.95,1.87,17,6.09,8,6.64,16.78,11.48,27.55,9.19,6.68-1.42,13.37-2.89,19.89-4.91,10.54-3.26,20-1.72,28.68,5.39,3.4,2.79,6.75,5.65,10.3,8.23,4.48,3.24,8.85,6.86,13.77,9.17,10.35,4.86,21,9,31.56,13.37a8.22,8.22,0,0,1-4.65-.22c-7.2-3.05-14.1-7.19-21.55-9.16-8.46-2.25-14.85-7.45-21.5-12.56-3.21-2.47-6.35-5-9.51-7.59a26.68,26.68,0,0,0-24.5-5.33c-4.52,1.13-9.24,1.68-13.57,3.33-14.73,5.62-27.24,1.72-39-8.25-3-2.55-7.6-4.51-11.37-4.36A143.6,143.6,0,0,0,188.5,1455c-8.33,2-14.1,8.8-18,16.32-5.3,10.32-10.94,20.14-19.54,27.84h42c7.53-3.45,14.93-7.27,22.63-10.23,6.16-2.36,12.74-1.42,18.5,1.46,10.08,5,19.89,3.61,30.12.87a68.28,68.28,0,0,1,18.67-2.43c7.66.16,14.64,3,19.08,10.33H451a33.76,33.76,0,0,1,4.82-.83c12.28-.37,24.57-.76,36.86-.94C507.12,1497.2,521.56,1497.19,536,1497.09Z"/><path class="cls-2" d="M536,1222.09v-34.38c-2.86.83-5.68,1.89-8.58,2.44-9.55,1.81-18.55-1-27.3-4.35-15.16-5.85-28.37-15.38-40.41-26.28-16.55-15-35.67-18.09-56.43-16-15.11,1.52-28.1,8.92-41.54,15.42a385.7,385.7,0,0,1-41.89,17.7c-10.17,3.5-21.05,5.12-31.73,6.56a81.83,81.83,0,0,1-22.38.08c-22.24-3.19-42.92-11.8-63.44-21-19.46-8.67-42.72-5.38-58.2,11.08-2.85,3-7.08,5.08-11,6.45-9.88,3.42-19.72.91-29.51-1.26-3.34-.74-6.88-1.66-10.19-1.27-14.28,1.71-25.25,10-34.88,20.4C44.88,1212.43,30,1225,10.11,1228.86c-3.23.62-6.73-.31-10.11-.52v45.83c6.29-2.17,12.7-4,18.84-6.57,15.33-6.35,30.72-12.69,42.38-25.65,6.36-7.07,12.76-14.09,19.11-21.17,10.32-11.51,22.4-15.71,37.43-11.45,16.53,4.68,32,1.19,45.77-9.46,8.54-6.59,17.76-10.87,28.63-10.3,6.15.33,12.36.26,18.43,1.15a72.34,72.34,0,0,1,14.19,4.07c6.08,2.25,11.81,5.93,18,7.27,11.36,2.46,22.95,3.91,34.5,5.28,6.57.78,13.6,2.06,19.81.49a307.63,307.63,0,0,0,41.34-13.42c12.57-5.15,24.9-10.74,38.38-12.61,16.6-2.31,33.25-3.7,49.13,3.65,9.4,4.36,18.52,9.38,27.77,14.1,11.93,6.09,23.56,13,35.88,18.07C504.45,1223.74,520,1226.48,536,1222.09ZM165.31,1181l.48.44-14.92,10.79c.61-2.6,1.23-5.2,1.58-6.7Z"/><path class="cls-2" d="M536,1471.05v-38.54c-13.09,3.81-26,8.53-39.34,11.09-8.82,1.7-18.19.52-27.3.18-6.8-.25-13.57-1.26-20.36-1.84-3.64-.31-7.34-.12-10.94-.68-17.57-2.77-34.17-8.75-50.18-16.67-21.19-10.47-42.44-20.8-63.65-31.21-7.82-3.84-15.28-9-23.49-11.3-11.37-3.2-23.13-3.39-35.11-1.32a112,112,0,0,1-31.75,1.26c-10.55-1.24-20.07-1-29,5.26-5.54,3.85-11.21,7.48-16.65,11.48a27.58,27.58,0,0,1-16.21,5.85c-23.75.34-41,13-55.33,31.38-8.37,10.74-16.36,22-25.92,31.48-8.44,8.35-18,16-29.8,19.24l.12-.08a43.23,43.23,0,0,1-4.65,3.54c-5.42,3.09-10.93,6-16.41,9H96c5.78-4.66,11.52-9.37,17.35-14,1.79-1.42,3.79-2.54,5.7-3.8l-.1.09c10.72-14.31,21.29-28.75,32.24-42.86,3.82-4.91,8-9.55,14.71-10.88,12.72-2.52,25.35-5.52,38-8.53,12-2.87,23.27-1.85,34.19,4.71,3.53,2.11,8.25,2.84,12.41,2.82a73,73,0,0,0,15.75-2.35,67.09,67.09,0,0,1,28.21-.92c15.34,3,29.26,9.74,42.28,18,16.94,10.78,34.72,19.26,53.82,24.29,38.34,10.11,77.09,17.5,116.9,12.11C517.07,1476.61,526.48,1473.39,536,1471.05Z"/><path class="cls-2" d="M536,1184.59v-28.13c-3.28-2-6.47-4.2-9.85-6-9.13-5-18.6-9.3-27.45-14.73a102.48,102.48,0,0,0-33.84-13.3c-22.3-4.5-44.6-6.5-66.83-.88a323.71,323.71,0,0,0-39,12.61c-28,11-56.66,16.56-86.53,14.07-8.23-.69-16.75-1.68-24.44-4.55-11.69-4.36-22.64-10.8-34.16-15.71-6.07-2.59-12.61-5.06-19.06-5.44-18-1.07-35,2.1-49.63,14.65-5.4,4.64-11,10.91-19.28,9.33-6.46-1.24-12.7-3.73-19.16-5.06-5.09-1.05-10.56-2.38-15.52-1.49-13.51,2.4-24.64,10.23-34.53,19.73-11.38,10.92-22.28,22.39-33.54,33.45-6.47,6.37-13.33,12.22-23.16,11.27v22.92a61,61,0,0,0,40-15.12c10.6-9.15,20.54-19.18,31.4-28,9.78-7.91,21-11.38,33.67-7.92a76.59,76.59,0,0,0,18.22,2.7c7.93.19,15.05-2,21.22-8.29,15.41-15.62,34-18.81,54.1-12.39,9,2.89,17.47,7.6,26.28,11.22,16.65,6.83,33.87,12.46,51.79,11.61a193.88,193.88,0,0,0,44.14-7.22c14-4,27.36-10.59,40.54-17.06,13.71-6.72,27-14.24,42.46-15.74,20.05-1.94,38.52,1,54.91,14.77a229.28,229.28,0,0,0,33.83,23.78C506,1187.34,520.61,1191.64,536,1184.59Z"/><path class="cls-2" d="M196,1499.18H300a22.72,22.72,0,0,0-19.58-8.43c-6.4.38-12.74,2-19.09,3.23-8.17,1.53-16.3,3.49-24.4-.47C222.15,1486.27,208.84,1491,196,1499.18Z"/><path class="cls-2" d="M492,724c-8.87-2.48-17.59-5.94-26.63-7.22-15.75-2.23-31.67-3.62-47.57-4.37-9-.43-18.2.58-27.17,1.88-16.84,2.44-33.59,5.56-50.36,8.43-1.78.3-3.52.85-5.27,1.28H308c-4.28-.31-8.58-.5-12.85-1-10.37-1.1-20.85-1.69-31.07-3.62A474.35,474.35,0,0,0,215.8,713c-24.63-2.11-48.66,2.35-73,4.22-15.06,1.15-30.19,1.53-45.3,1.89-4.77.12-9.67-1.84-14.33-1.3C68.76,719.44,54.4,721.87,40,724H0v21H40c14.4,2.22,28.76,4.75,43.22,6.5,4.66.56,9.56-1.48,14.33-1.36,15.11.38,30.24.78,45.3,2,24.29,1.94,48.32,6.58,73,4.39a458.72,458.72,0,0,0,48.28-6.75c10.22-2,20.7-2.63,31.07-3.77,4.27-.47,8.57-.67,12.85-1h27c1.75.45,3.49,1,5.27,1.34,16.77,3,33.52,6.23,50.36,8.78,9,1.35,18.15,2.4,27.17,2,15.9-.79,31.82-2.23,47.57-4.56,9-1.33,17.76-4.94,26.63-7.52h42.28V724Z"/></g></g></g></svg>