<svg xmlns="http://www.w3.org/2000/svg" viewBox="0 0 1280 1024"><defs><style>.cls-1{stroke:#000;stroke-miterlimit:10;stroke-width:10px;}.cls-2{fill:#b5eb00;}.cls-3{fill:#fff;}</style></defs><title>macaroonicon</title><g id="Layer_5" data-name="Layer 5"><path class="cls-1" d="M389.55,257C519.18,130,723,146.43,755.76,150.44c16.33,2,207.54,53.51,238.31,278.33,24.49,178.9-92.38,350.06-240.54,400.09C602.28,880,479.09,817.72,466.1,810.58,320.31,730.4,287.25,581,281.61,552.59,275.39,521.27,267.32,376.75,389.55,257Z"/><path d="M446.26,576.46c1.58,15.83,2.42,36.41,6,56.49,3.13,17.4,9,34.37,14.45,51.28,3.48,10.84,8.18,21.31,12.67,31.8,6.66,15.54,13.92,30.83,20.37,46.45,5.27,12.77,10.92,25.09,20.68,35.26,5.13,5.36,11.3,7,17.47,4.59,15.17-5.86,30.52-11,40.93-25.65,5.51-7.76,7.22-13.87,3.94-22.3C574.09,732,572.86,708,569,684.6c-3-18-4.8-36.22-7.12-54.34-2.69-21-2.78-42,.73-62.85,4.76-28.37,10.69-56.56,14.95-85,4.78-31.87,12.76-62.87,25.3-92.38,10.68-25.15,23.43-49.45,35.84-73.82,15.92-31.27,32.62-62.12,55.27-89.23,4.12-4.93,4.31-9.42,1.34-15-7.87-14.81-20.23-24.66-34.85-31.8-10.33-5-20.93-2.91-30,3.08-9.88,6.49-19.68,13.51-28,21.79-14.94,14.74-28.82,30.57-43.06,46-20.74,22.48-35.06,48.75-45.56,77.27-5.84,15.86-10.21,32.5-18,47.32a415.65,415.65,0,0,0-28.49,69.5c-4.39,13.94-10.46,27.67-12.46,42C450.82,515.13,449.24,543.48,446.26,576.46Z"/><path class="cls-2" d="M446.26,576.46c3-33,4.56-61.33,8.47-89.36,2-14.29,8.07-28,12.46-42a415.65,415.65,0,0,1,28.49-69.5c7.82-14.82,12.19-31.46,18-47.32,10.5-28.52,24.82-54.79,45.56-77.27,14.24-15.44,28.12-31.27,43.06-46,8.37-8.28,18.17-15.3,28-21.79,9.12-6,19.72-8.12,30-3.08,14.62,7.14,27,17,34.85,31.8,3,5.59,2.78,10.08-1.34,15-22.65,27.11-39.35,58-55.27,89.23-12.41,24.37-25.16,48.67-35.84,73.82-12.54,29.51-20.52,60.51-25.3,92.38-4.26,28.44-10.19,56.63-14.95,85-3.51,20.86-3.42,41.87-.73,62.85,2.32,18.12,4.11,36.33,7.12,54.34,3.89,23.39,5.12,47.36,13.83,69.78,3.28,8.43,1.57,14.54-3.94,22.3-10.41,14.69-25.76,19.79-40.93,25.65-6.17,2.39-12.34.77-17.47-4.59-9.76-10.17-15.41-22.49-20.68-35.26-6.45-15.62-13.71-30.91-20.37-46.45-4.49-10.49-9.19-21-12.67-31.8-5.44-16.91-11.32-33.88-14.45-51.28C448.68,612.87,447.84,592.29,446.26,576.46Z"/><path d="M937.16,424.46l22.92,15.83c-5-9.72-10.4-18.69-23.31-15.56-3.78-10.26-11.5-15.49-21.95-17.33-4.38-.77-8.73-1.71-13.09-2.56C895,391,882,385.41,869.09,379.46c-9.85-4.54-19.24-10.07-28.72-15.35-.54-.3-.07-2.42-.07-4,11.1-3.46,17.88,10.56,29.16,7.49-6.8-11.24-7-10.84-17.06-15.72-15.17-7.34-30-15.49-45.09-22.92-6.1-3-12.49-6.26-19.07-7.27A825.94,825.94,0,0,1,692,301.1c-7.08-2-12.54-.71-16.39,5.95-1.36,2.36-3.36,4.34-4.83,6.66-6.57,10.36-5.19,14,6.64,17.11,19.88,5.17,39.9,9.8,59.67,15.37,26.79,7.56,53.4,15.77,80.07,23.77a63.87,63.87,0,0,1,6.25,2.76q36,15.27,71.94,30.47c2.06.86,4.47.9,6.74,1.3,4.49,2.92,8.84,6.08,13.5,8.7C922.65,417.17,929.9,420.77,937.16,424.46Z"/><path d="M916.41,396.1l-3.07-7.54c13.71,3.78,13.71,3.78,24.08,1.91-16.85-11.47-35.29-10.93-51.84-16.56,9.42,8.37,19.62,15.16,29.85,21.9.3.2.89,0,1.34-.06,4.5,2.1,8.87,4.56,13.53,6.24,14.21,5.14,30.59,4.67,42.23,16.47.13.13.79-.26,2.51-.88-.92-3.1-.91-8.14-3-9.31-8.23-4.56-16.82-9.37-25.87-11.25C936.59,395,926.36,396.26,916.41,396.1Z"/><path d="M956.93,451.27l7.34,6.15c.4-.75.8-1.5,1.21-2.25l-8.93-3.59c-8.26-7-15.83-15.16-24.95-20.8-12.75-7.89-26.7-13.81-40-20.77C864,395.6,835,384.6,805.3,375.4c-14.4-4.46-28.86-8.77-43.39-12.8q-46.83-13-93.76-25.56c-4.73-1.28-9.64-.83-12.17,3.78q-9.54,17.37-18.12,35.25c-2.12,4.41-1.7,9.59,3.13,12.1,13.66,7.07,26.72,16.62,43.62,12.81,10.17-2.3,19.6-.21,29.38,3.25,10.65,3.78,21.94,7.14,33.1,7.74,18.51,1,36,3.44,52.56,12.72,8.23,4.62,17.72,7.36,27,9.7,9.89,2.52,20.16,4,32,.29-8.79-12.12-20.61-17-32.55-20.68-14-4.24-28.72-5.81-42.61-10.21-12.9-4.09-25.11-10.33-37.55-15.81-.77-.34-.83-2.29-1.36-3.93,7.63-3.53,13.92.66,19.57,3.47a104.84,104.84,0,0,0,47.37,11.22c11.78,0,21.19,4.46,30.8,9.69a60,60,0,0,1,9.22,5.92c13.05,10.61,29.25,11.54,44.7,14.41,15.62,2.9,31.79,3.16,44.84,14.54C945.39,447.06,951.57,448.69,956.93,451.27Z"/><path d="M940.79,526.71l.48-3.14c-6.63-5.25-15.16-4.82-22.87-6.11A723.24,723.24,0,0,1,795.15,485.4c-19.71-7-40-12.07-61.38-13.52-18.57-1.26-37-5.39-55.35-9.05-21.43-4.28-42.68-9.43-64.13-14.23-8.93,14.78-10.25,30.52-13.6,45.51-.63,2.79,2.63,8,5.51,9.73A281.27,281.27,0,0,0,640,521.45c15.53,6.53,31.07,13.16,48.4,14.41,29.58,2.13,59.1,5.11,88.64,7.82a36.31,36.31,0,0,1,8.06,1.66c9.54,3.14,19.36,5.75,28.47,9.88,25.4,11.49,52.42,15.67,79.69,18.93,3.61.43,7.37-.45,11.07-.72,0-.75-.05-1.5-.07-2.25l-23.6-6.42c8.45-4.48,16.23-4.87,24.16-1.32,5.3,2.38,10.93,4.83,16-.82-2.31-7.66-8.16-5.66-12.64-5-10.76,1.67-20.74-.22-30.86-3.85-21.07-7.56-42.36-14.49-63.5-21.84a24.41,24.41,0,0,1-8.34-4.65c-8.26-7.51-17.91-8-28.28-7-4.87.45-9.94-.31-14.82-1.14-26.1-4.4-52.21-8.76-78.21-13.66-10.29-1.94-20.37-5.05-30.44-8-3.54-1-6.47-3.36-4.48-8.67,1.77.21,3.73-.09,5.11.67,13,7.28,27.05,10.37,41.88,11.64,13.59,1.17,27,4.06,40.52,6.25,11.69,1.89,23.3,4.85,35.06,5.54,15.38.9,31-.89,43.85,10.58,1.91,1.71,5,2.22,7.59,3,18.69,5.94,37.36,11.92,56.12,17.65A106.73,106.73,0,0,0,896.69,548c20.4,2.65,40.85,4.86,61.25,7.45,6,.76,11.93,2.18,18.29,3.37,1-9.19-5-12.13-10.13-14.14-7.13-2.77-14.84-4.3-22.44-5.54-7.83-1.27-15.14-2.65-19.41-12.47Z"/><path d="M684.16,573.36l0-2.84c2.11-.27,4.32-1.08,6.32-.72,18.84,3.41,37.64,7,56.47,10.54,8,1.48,16.32,4.76,24,3.66a50.4,50.4,0,0,1,24,2.33c12.61,4.16,25.36,7.19,38.78,2.62,2.54-.87,6,1.15,9.08,1.6,5.28.77,10.63,2.13,15.87,1.86,20-1,39.62-3,59.69,3.49,13.07,4.23,28,2.75,42.09,3.83.3-.84.6-1.68.89-2.52-6.87-3-13.5-7.42-20.67-8.64-12.54-2.14-25.42-2.26-38.16-3.3a100.22,100.22,0,0,1-13.43-1.56c-8-1.77-15.68-4.88-23.71-5.94-17.85-2.34-34.54-7.91-51.23-14.48a253.67,253.67,0,0,0-45.82-13.47c-16.54-3.12-33.64-3.11-50.39-5.3-19-2.49-38.24-4.34-56.6-9.33-20.12-5.46-40-12.57-58-23.72-1.37-.84-3.35-.71-6.26-1.27-1.73,7-3.44,13.47-4.92,20-4.27,18.83-2.51,21.58,16.13,27.19,5.83,1.76,11.44,4.27,17.15,6.44l-1,2.77c-12.16.87-23-4.88-34.42-9.25-2.44,7.81,1.15,11.49,6.56,13.87s11,4.51,16.64,6.41c20.72,7,41.25,14.78,62.3,20.58,14.88,4.1,30.46,5.73,45.79,8,18.92,2.84,37.84,6.19,56.89,7.49,14.15,1,28,2.38,41.85,5.5,9.62,2.17,20,1.77,30,1.2,12.19-.7,24.28-3.8,36.45-4,15.43-.25,30.91,1.24,46.36,2.25,6.51.43,12.37,0,17.18-7-9.72-3.89-19.29-8.91-28.21-4.22-10.38,5.45-20.21,2.39-29.86,1.2-16.61-2.05-32.92-6.5-49.44-9.5-4.41-.8-9.12,0-13.7.11-4.11.07-8.51,1.1-12.3,0-24.58-7-50.07-8.71-75-13.67-12.07-2.4-24-5.43-36-8C698.39,576.06,691.27,574.77,684.16,573.36Z"/><path d="M923.28,671c.19-1.29.38-2.57.56-3.86-2.39-1.08-4.71-2.9-7.18-3.12-8.76-.78-17.16-2.12-24.76-7.13-2-1.33-5.25-.8-7.91-1.18-2.16-.3-5.22.12-6.31-1.14-7.84-9.07-18.25-8.82-28.9-9.6s-21.54-1.26-29.59-11.27c-3.09-3.85-10.49-5.09-16.15-5.82-10.85-1.42-21.92-1.09-32.78-2.44-25.37-3.14-50.66-6.89-76-10.28-14-1.87-29-.88-41.79-5.87-18.51-7.24-38.35-8.48-56.64-15.73-2.76-1.09-6-1.1-8.82-1.58-6.18,19.33-5.38,26.78,6.73,33a303.37,303.37,0,0,0,44.16,18.26c17.76,5.84,37,7.92,54,15.33,20.37,8.9,42.27,11.1,62.94,18.48,17.43,6.22,36.38,8.34,54.75,11.76,19.32,3.6,38.73,6.73,58.14,9.77,5.6.88,11.71,2,16.76-5.15-3.81-1.81-6.83-3.46-10-4.71-13-5.11-26.76-5.14-40.41-6.11-6-.42-12.64,0-17.35-7.67,12-1,23.12,6.23,35.72-1.68-4.8-2.44-7.69-4.73-10.91-5.38a119.66,119.66,0,0,0-20.36-2.6c-20.56-.54-40.94-1.62-60.21-10a49.81,49.81,0,0,0-10.57-2.84c-19.19-3.6-38.44-6.87-57.58-10.75-6.19-1.25-12.11-3.94-18.11-6.07s-12.09-4.22-18-6.64q-18.28-7.49-36.4-15.4c-.72-.31-.77-2.15-1.16-3.35,1.33-.23,2.29-.71,3-.46,28.84,10.06,57.64,20.26,86.51,30.24,3.82,1.33,8.24,3,11.95,2.24,19.78-3.86,37.94,1.2,55.82,8.77,12.41,5.25,25.37,6.83,38.83,6.57,12.26-.23,25.18-1.52,36.64,1.75,14.65,4.17,29,7,44.14,6.9,4,0,7.91,2,11.93,2.73C913,669.87,918.15,670.32,923.28,671Z"/><path d="M910.62,488.09c-.67-1.92-.72-3.09-1.31-3.51a41.92,41.92,0,0,0-4.77-2.57c-16-8.43-34.7-11.64-48.25-25.12-2.55-2.55-7.54-2.91-11.51-3.7-13-2.57-25.62-5.5-38-11-20-8.92-40.77-16.56-62.93-18.62-13.64-1.27-27.34-1.88-41-2.92-21.47-1.63-42.68-4.49-62.54-13.61-4-1.83-8.12-3.35-12.77-5.26-6,10.95-9,21.83-10.85,33.07-1.07,6.55,1.61,10.27,8.68,11.12,10.37,1.25,21,2.11,30.92,5,29,8.48,58.57,13.46,88.6,16.06,5.45.48,11.16.08,16.33,1.55,21.91,6.24,43.71,12.91,65.47,19.66,15.22,4.72,30.12,10.63,45.54,14.55,15,3.8,30.35,5.93,45.62,8.39,5.92.95,12,.8,18,1.15.29-1.27.58-2.53.86-3.8-24.59-9-50.4-15.68-70.68-33.53C881.65,476.2,894.47,487,910.62,488.09Z"/><path d="M582.11,628.36c-1.85,24.53-.53,44.06,20.91,56.62,12.28,7.19,24.15,14.7,38.57,17.1,6.23,1,12.22,3.58,18.32,5.43,14,4.25,27.77,9.92,42.08,12.43,27.91,4.88,56.1,8.24,84.23,11.74,23.56,2.93,47.21,5.21,70.83,7.66,2,.2,4.05-.5,6.08-.78-4.91-3-9.79-5.41-14.81-5.75-14.05-1-27.41-6.53-42-4.66a41.27,41.27,0,0,1-33.2-10,34.62,34.62,0,0,0-13-7.18c-14.46-4-29.18-6.91-43.72-10.6-19-4.83-37.95-10.12-57-15-15.12-3.84-28.66-10.83-41.54-19.54,13.86,2.11,27.6,4.48,41.06,7.91,13.14,3.36,26,7.78,39,11.79,8.3,2.56,16.56,5.27,24.87,7.79,3.92,1.19,7.9,2.91,11.88,3,19.58.47,37.58,7.3,55.87,13.06a141.78,141.78,0,0,0,17.15,4.68c2.11.37,6.23-1,6.69-2.46,1.93-6.09,6.39-3.85,10.16-3.93,5.93-.13,12.27,2.79,20.08-3.84-8.46-2.32-14.78-4.46-21.27-5.76-17.48-3.5-35.37-5.42-52.48-10.19-32.52-9.08-65.76-15.44-97.61-27.17-21.39-7.89-43.69-13.29-65.37-20.43C599.86,637.7,592.43,633.23,582.11,628.36Z"/><path d="M928.41,353c-2.56-8.48-7.49-11.33-13.6-14.2-13.13-6.17-26.67-12.24-38.18-20.84-11.25-8.43-23.4-13.94-36.14-19-8.49-3.34-16.62-7.64-25.19-10.73-12.4-4.48-24.88-10.85-37.64-11.73-20.11-1.39-40.06-2.86-59.51-8-12-3.18-19.15,2.22-25.23,11.27-6.73,10-5.38,14.58,6.27,17.61,15,3.9,30.24,7.11,45.36,10.69,5.74,1.36,11.76,4.87,17.09,4,13.37-2.2,25,4.6,37.65,5.42,3.48.23,7.05,2.05,10.2,3.8,16.69,9.23,32.84,19.45,51.11,25.65,5,1.71,9.3,5.62,14,8.35,5.89,3.41,11.6,7.42,17.9,9.76,8.49,3.15,17.44,5.12,26.28,7.2,2.14.51,4.63-.52,9.31-1.16-5.21-5.14-8.19-9.51-12.32-11.9-12.89-7.47-26.15-14.33-39.42-21.13-3.55-1.82-8.15-2.12-6.94-9.63,11.63,2.7,23.22,4,32.12,12.95C908.67,348.57,917.8,350.53,928.41,353Z"/><path d="M950.07,357.76l2.88-2.61c-.34-1.67-.08-4-1.09-4.89-14.32-11.85-28.81-23.5-43.3-35.14-.66-.53-1.85-.37-2.57-.86-5.92-4.05-12.41-7.52-17.52-12.42-11.66-11.19-23.39-22.3-40.12-24.45-14.21-1.82-27.62-4.43-37.5-16a4.9,4.9,0,0,0-2.48-1.12c-8.75-2.28-17.45-4.85-26.3-6.64-6.19-1.26-11.82-2.58-14.75-8.79,13.17,2.42,25.54,4.68,37.89,7a9,9,0,0,1,3.81,1.49c16.43,12.85,35.16,20.09,55.61,23.44,7.57,1.24,15.09,2.9,22.57,4.66,7.28,1.71,14.48,3.78,22.47,5.89-4.27-12.65-6.79-14.54-18.92-15-16.19-.58-31.53-4.9-46.42-10.92-3.49-1.4-8-2.82-6.58-9.25L853,253.64c.31-.9.63-1.79.94-2.69-3.86-1.86-7.61-4-11.61-5.53-9-3.39-18.6-5.39-26.91-9.89-11.75-6.37-23.95-8.36-36.91-8.34-4,0-8.91.61-12-1.31-8.92-5.54-18.12-4.41-28.5-3.53-2.83,14.58-19.23,21.23-22.07,37.81,19.07,5,37.66,8.39,56.82,9.15,7.15.28,14.64,1.05,21.26,3.51,19.23,7.17,37.87,15.95,57.19,22.83,13.15,4.68,24.28,12.07,35.48,20,7.76,5.47,16.06,10.89,24.94,13.91,11.87,4,20.65,11.24,28.73,20.18C943.16,352.79,946.81,355.1,950.07,357.76Z"/><path d="M740.46,752.47c18,4.09,75.32,6.72,84.95,2.31-7.75-5.6-16.24-6.48-24.89-7-4.08-.25-9.21.51-12-1.63-9.38-7.21-20.54-6.94-31.1-8.79-34.08-6-69.1-6.62-101.91-19.62-16.07-6.37-32.79-11.07-49.1-16.84-5-1.78-9.66-4.6-14.7-7-1.67,14.42.7,18,11.64,22a175.52,175.52,0,0,1,24.91,11.29c21.22,11.83,42.73,21.93,67.31,25.6a190.56,190.56,0,0,1,48.65,13.71c23.57,10.42,46.5,4.61,69.79,2.49C789.55,762.58,763.31,765.18,740.46,752.47Z"/><path d="M781.89,793.49c-9.44-4-18.46-8.33-27.89-11.46a38.88,38.88,0,0,0-17.13-1.95,57.65,57.65,0,0,1-29.56-3.56c-5.89-2.26-12.27-3.9-12.32-12.58,0-1.92-4.06-4.52-6.73-5.56-3.78-1.45-8-1.87-12.06-2.5a99.7,99.7,0,0,1-41.62-16.4c-11.09-7.6-23.53-13-38.34-17.39,1.9,12.28,8.3,20.76,12.54,30,.81,1.75,3.47,2.88,5.49,3.82,30.31,14.06,61.15,26.37,94.57,31.24a290,290,0,0,1,42.86,9.07C762.45,799.52,772.05,801,781.89,793.49Z"/><path d="M875.2,246.75c-7.47-11.89-12.83-20.41-24.43-22.88-3.77-.81-8.84-3-10.27-6.05-5.84-12.28-16.6-12.44-27.7-13.86-12.62-1.61-25.39-3.66-37.47-7.49-14.54-4.61-25.67,2.07-27.23,19.51,15.67,1.72,31.37,3.33,47,5.24a55.72,55.72,0,0,1,12,3c17.18,6.2,34.23,12.73,51.43,18.86C862.89,244.62,867.63,245.12,875.2,246.75Z"/><path d="M703,818.51l1.41-2.86c-3.25-2-6.41-4.12-9.76-5.91s-7-3.29-10.55-4.92c.31-1,.61-2,.92-3,10,2.23,20,4.54,30,6.67,7.57,1.61,15.15,3.24,22.79,4.35,4.53.66,9.16.26,11.32-7.57-22.6-4.78-44.93-8.56-66.71-14.37s-42.9-13.65-65.24-20.9c.4,2.27.31,4.1,1,5.5,4.47,8.58,11.32,14.3,19.23,20.19C657.33,810.49,680.43,813.09,703,818.51Z"/><path d="M854.83,629.89c0,1.14.09,2.28.13,3.42a205.56,205.56,0,0,0,42.34,12.27c13.59,2.33,27.72,1.78,41.62,1.9,6,0,8-4.53,8.86-10.25-2.26-.91-3.81-1.92-5.47-2.14q-31.69-4.29-63.4-8.32a57.89,57.89,0,0,0-13.59-.44C861.73,626.74,858.32,628.65,854.83,629.89Z"/><path d="M878.27,450.2c11.86,7.65,23.15,15,34.52,22.24a48.55,48.55,0,0,0,8.46,4.47c4.47,1.72,9.06,2.42,14-.05-7.8-10.35-22.73-8.48-30.41-21.48,13.78,1.47,23.92,11.13,36.88,6.93-10.74-11.37-10.74-11.36-47.81-16.18C888.5,445.43,883.17,444.62,878.27,450.2Z"/><path d="M819.26,198.44c-3.16-9.18-9.61-10.5-15.27-12.93a85.13,85.13,0,0,1-10.68-5.23c-6-3.65-9.67-3.42-12.79,1.31-3,4.51-1.43,8.91,5.18,11.66C795.8,197.45,806.48,198.81,819.26,198.44Z"/><path d="M968.57,582.49a39.17,39.17,0,0,0-54.68-7.79Z"/><path d="M981.74,500.85c-10.9-10-47-15.57-59.37-10.16C940.79,499.2,960,501.1,981.74,500.85Z"/><path d="M887.83,716.65c-16.28-9.65-34.37-9.82-41.51.58C860.5,717.64,873.57,719.73,887.83,716.65Z"/><path d="M926.16,310.25c-5.3-14.35-14.17-19.68-25.24-15.19C906.18,306.2,912.86,310.22,926.16,310.25Z"/><path d="M679.15,824.72c-9.62-6.19-18.34-6.07-27.1-7C653,831.42,660.75,830.86,679.15,824.72Z"/><path d="M953.74,515.59c8.86,7.44,10.67,7.89,23.56,5.9C969.05,513.37,967.46,513,953.74,515.59Z"/><path d="M944,371.53c8.07,2.83,10.22,15.58,22.8,13.53C962.32,373.6,953.59,371.87,944,371.53Z"/><path d="M705.47,763.72c6.35,9.53,16.15,8.39,25.47,8.85C723.67,766.28,714.65,764.72,705.47,763.72Z"/><path d="M866,255.17c3,6.26,7.31,5.61,12.91,4.6C876.17,252.49,872,252.5,866,255.17Z"/><path class="cls-3" d="M940.79,526.71H924.25c4.27,9.82,11.58,11.2,19.41,12.47,7.6,1.24,15.31,2.77,22.44,5.54,5.15,2,11.12,4.95,10.13,14.14-6.36-1.19-12.28-2.61-18.29-3.37-20.4-2.59-40.85-4.8-61.25-7.45a106.73,106.73,0,0,1-17.28-3.85c-18.76-5.73-37.43-11.71-56.12-17.65-2.61-.83-5.68-1.34-7.59-3-12.82-11.47-28.47-9.68-43.85-10.58-11.76-.69-23.37-3.65-35.06-5.54-13.49-2.19-26.93-5.08-40.52-6.25-14.83-1.27-28.84-4.36-41.88-11.64-1.38-.76-3.34-.46-5.11-.67-2,5.31.94,7.63,4.48,8.67,10.07,2.95,20.15,6.06,30.44,8,26,4.9,52.11,9.26,78.21,13.66,4.88.83,10,1.59,14.82,1.14,10.37-.94,20-.47,28.28,7a24.41,24.41,0,0,0,8.34,4.65c21.14,7.35,42.43,14.28,63.5,21.84,10.12,3.63,20.1,5.52,30.86,3.85,4.48-.7,10.33-2.7,12.64,5-5.07,5.65-10.7,3.2-16,.82-7.93-3.55-15.71-3.16-24.16,1.32l23.6,6.42c0,.75.05,1.5.07,2.25-3.7.27-7.46,1.15-11.07.72C866,570.89,839,566.71,813.6,555.22c-9.11-4.13-18.93-6.74-28.47-9.88a36.31,36.31,0,0,0-8.06-1.66C747.53,541,718,538,688.43,535.86c-17.33-1.25-32.87-7.88-48.4-14.41a281.27,281.27,0,0,1-33.83-17.61c-2.88-1.7-6.14-6.94-5.51-9.73,3.35-15,4.67-30.73,13.6-45.51,21.45,4.8,42.7,9.95,64.13,14.23,18.34,3.66,36.78,7.79,55.35,9.05,21.33,1.45,41.67,6.52,61.38,13.52A723.24,723.24,0,0,0,918.4,517.46c7.71,1.29,16.24.86,22.87,6.11Zm-321.4-57.42c9.49,6.8,17.47,5.49,24.82,6.76,7.14,1.24,14.8,1.49,21.22,4.39,13.42,6.08,27.13,3.86,41,3.65-6.31-5.22-14.2-4.3-21.43-5.87-6.13-1.32-12.6-2.32-18.09-5.1-12.25-6.22-25.47-4.93-38.34-6.33C626.57,466.58,624.43,467.85,619.39,469.29Zm124.66,19.48c18.72,12.62,41.54,8.27,60.73,16.82,5,2.2,11,2,16.48,2.93C800.76,495.51,754.67,484.51,744.05,488.77Zm-27.73,32.41c-8.47-.68-15.51-.83-22.41-1.9-7.2-1.13-14.22-3.36-21.39-4.71-6.58-1.24-13-4.86-21.54-2.54C674.37,526.08,701.66,530.13,716.32,521.18Zm202.21,14.13c.19-1,.38-2,.58-3-10.64-.57-21.41-.31-31.88-2-10.08-1.59-18.21-10-30.88-10.84C875.06,539,897,536.51,918.53,535.31Zm-79.6,16.27c-.46-2.65-.38-4.08-.78-4.22-9.75-3.64-19.54-7.2-29.39-10.57-1-.34-2.44.63-4.55,1.25C813.23,550.82,826.66,548.17,838.93,551.58Zm-64.18-20.71,0-4.06c-9.76-2.09-19.53-3.43-29.42-1.08l-.18,3Z"/><path class="cls-3" d="M684.16,573.36c7.11,1.41,14.23,2.7,21.3,4.24,12,2.62,24,5.65,36,8,24.92,5,50.41,6.68,75,13.67,3.79,1.08,8.19,0,12.3,0,4.58-.07,9.29-.91,13.7-.11,16.52,3,32.83,7.45,49.44,9.5,9.65,1.19,19.48,4.25,29.86-1.2,8.92-4.69,18.49.33,28.21,4.22-4.81,6.95-10.67,7.39-17.18,7-15.45-1-30.93-2.5-46.36-2.25-12.17.2-24.26,3.3-36.45,4-10,.57-20.38,1-30-1.2-13.89-3.12-27.7-4.53-41.85-5.5-19-1.3-38-4.65-56.89-7.49-15.33-2.29-30.91-3.92-45.79-8-21-5.8-41.58-13.55-62.3-20.58-5.62-1.9-11.2-4-16.64-6.41s-9-6.06-6.56-13.87c11.46,4.37,22.26,10.12,34.42,9.25l1-2.77c-5.71-2.17-11.32-4.68-17.15-6.44-18.64-5.61-20.4-8.36-16.13-27.19,1.48-6.53,3.19-13,4.92-20,2.91.56,4.89.43,6.26,1.27,18,11.15,37.92,18.26,58,23.72,18.36,5,37.63,6.84,56.6,9.33,16.75,2.19,33.85,2.18,50.39,5.3a253.67,253.67,0,0,1,45.82,13.47c16.69,6.57,33.38,12.14,51.23,14.48,8,1.06,15.76,4.17,23.71,5.94a100.22,100.22,0,0,0,13.43,1.56c12.74,1,25.62,1.16,38.16,3.3,7.17,1.22,13.8,5.65,20.67,8.64-.29.84-.59,1.68-.89,2.52-14.09-1.08-29,.4-42.09-3.83-20.07-6.51-39.66-4.51-59.69-3.49-5.24.27-10.59-1.09-15.87-1.86-3.07-.45-6.54-2.47-9.08-1.6-13.42,4.57-26.17,1.54-38.78-2.62a50.4,50.4,0,0,0-24-2.33c-7.67,1.1-16-2.18-24-3.66-18.83-3.5-37.63-7.13-56.47-10.54-2-.36-4.21.45-6.32.72ZM697.93,556l-.37,3.82c7.45.94,14.94,2.83,22.37,2.61,17.23-.49,33.3,3.67,49.1,9.83,9.4,3.66,18.77,2.64,30.15.06-18.36-4.77-34.49-9-50.68-13.09-3-.76-6.32-.41-9.46-.81-5.82-.72-11.73-1.15-17.39-2.55C713.58,553.84,705.73,552.38,697.93,556Zm-38.81-3.63c.35-1.3.7-2.61,1-3.91q-25.67-9.37-51.36-18.7a17.85,17.85,0,0,0-5.24-.91c-.68,0-1.4.89-3.8,2.54,3.42,2.6,6,5.84,9.33,6.89C625.61,543.51,641.45,551.6,659.12,552.34Zm-13.2,9.48c7.87,10.53,18.52,13.29,28,8.83ZM725,594.15l-12.71-5.33C715.93,598.4,715.93,598.4,725,594.15Z"/><path class="cls-3" d="M923.28,671c-5.13-.64-10.28-1.09-15.37-2-4-.69-8-2.76-11.93-2.73-15.15.1-29.49-2.73-44.14-6.9-11.46-3.27-24.38-2-36.64-1.75-13.46.26-26.42-1.32-38.83-6.57-17.88-7.57-36-12.63-55.82-8.77-3.71.72-8.13-.91-11.95-2.24-28.87-10-57.67-20.18-86.51-30.24-.7-.25-1.66.23-3,.46.39,1.2.44,3,1.16,3.35q18.12,7.89,36.4,15.4c5.91,2.42,12,4.51,18,6.64s11.92,4.82,18.11,6.07c19.14,3.88,38.39,7.15,57.58,10.75a49.81,49.81,0,0,1,10.57,2.84c19.27,8.33,39.65,9.41,60.21,10a119.66,119.66,0,0,1,20.36,2.6c3.22.65,6.11,2.94,10.91,5.38-12.6,7.91-23.69.72-35.72,1.68,4.71,7.72,11.39,7.25,17.35,7.67,13.65,1,27.41,1,40.41,6.11,3.17,1.25,6.19,2.9,10,4.71-5.05,7.19-11.16,6-16.76,5.15-19.41-3-38.82-6.17-58.14-9.77-18.37-3.42-37.32-5.54-54.75-11.76-20.67-7.38-42.57-9.58-62.94-18.48-17-7.41-36.19-9.49-54-15.33A303.37,303.37,0,0,1,593.74,625c-12.11-6.23-12.91-13.68-6.73-33,2.86.48,6.06.49,8.82,1.58,18.29,7.25,38.13,8.49,56.64,15.73,12.75,5,27.8,4,41.79,5.87,25.34,3.39,50.63,7.14,76,10.28,10.86,1.35,21.93,1,32.78,2.44,5.66.73,13.06,2,16.15,5.82,8,10,18.94,10.5,29.59,11.27s21.06.53,28.9,9.6c1.09,1.26,4.15.84,6.31,1.14,2.66.38,5.89-.15,7.91,1.18,7.6,5,16,6.35,24.76,7.13,2.47.22,4.79,2,7.18,3.12C923.66,668.39,923.47,669.67,923.28,671Z"/><path class="cls-3" d="M956.89,451.3c-5.32-2.61-11.5-4.24-15.81-8-13.05-11.38-29.22-11.64-44.84-14.54-15.45-2.87-31.65-3.8-44.7-14.41a60,60,0,0,0-9.22-5.92c-9.61-5.23-19-9.73-30.8-9.69a104.84,104.84,0,0,1-47.37-11.22c-5.65-2.81-11.94-7-19.57-3.47.53,1.64.59,3.59,1.36,3.93,12.44,5.48,24.65,11.72,37.55,15.81,13.89,4.4,28.66,6,42.61,10.21,11.94,3.64,23.76,8.56,32.55,20.68-11.88,3.74-22.15,2.23-32-.29-9.24-2.34-18.73-5.08-27-9.7-16.52-9.28-34-11.72-52.56-12.72-11.16-.6-22.45-4-33.1-7.74-9.78-3.46-19.21-5.55-29.38-3.25-16.9,3.81-30-5.74-43.62-12.81-4.83-2.51-5.25-7.69-3.13-12.1q8.58-17.85,18.12-35.25c2.53-4.61,7.44-5.06,12.17-3.78q46.9,12.68,93.76,25.56c14.53,4,29,8.34,43.39,12.8C835,384.6,864,395.6,891.56,410c13.34,7,27.29,12.88,40,20.77,9.12,5.64,16.69,13.78,24.95,20.8Zm-275.7-81.68C696,379.24,709,385.06,724.53,384c-6.25-3.2-13.18-4.59-19.48-7.42C698.29,373.5,692.61,367.73,681.19,369.62Z"/><path class="cls-3" d="M910.62,488.09c-16.15-1.08-29-11.89-44.55-13.08,20.28,17.85,46.09,24.49,70.68,33.53-.28,1.27-.57,2.53-.86,3.8-6-.35-12.11-.2-18-1.15-15.27-2.46-30.67-4.59-45.62-8.39-15.42-3.92-30.32-9.83-45.54-14.55-21.76-6.75-43.56-13.42-65.47-19.66-5.17-1.47-10.88-1.07-16.33-1.55-30-2.6-59.59-7.58-88.6-16.06-9.95-2.92-20.55-3.78-30.92-5-7.07-.85-9.75-4.57-8.68-11.12,1.83-11.24,4.88-22.12,10.85-33.07,4.65,1.91,8.78,3.43,12.77,5.26,19.86,9.12,41.07,12,62.54,13.61,13.66,1,27.36,1.65,41,2.92,22.16,2.06,42.93,9.7,62.93,18.62,12.37,5.52,25,8.45,38,11,4,.79,9,1.15,11.51,3.7,13.55,13.48,32.23,16.69,48.25,25.12a41.92,41.92,0,0,1,4.77,2.57C909.9,485,910,486.17,910.62,488.09ZM678.83,437.47c-13.34-3-25.78-9.91-42.25-10.23C649.52,442.87,665.51,434.36,678.83,437.47Zm92.42,14.12c3.59,5.67,8.23,5.59,14,3.52C778.74,446.14,778.74,446.14,771.25,451.59Zm-47.42-7.24c5.08,1.49,10.1,4.91,17.36.37C734.07,442.66,729.33,438.32,723.83,444.35ZM830,469.44c-8.39-4.64-8.39-4.64-14.62-4.61C820.33,470.73,820.33,470.73,830,469.44Z"/><path class="cls-3" d="M582.11,628.36c10.32,4.87,17.75,9.34,25.79,12,21.68,7.14,44,12.54,65.37,20.43,31.85,11.73,65.09,18.09,97.61,27.17,17.11,4.77,35,6.69,52.48,10.19,6.49,1.3,12.81,3.44,21.27,5.76-7.81,6.63-14.15,3.71-20.08,3.84-3.77.08-8.23-2.16-10.16,3.93-.46,1.45-4.58,2.83-6.69,2.46a141.78,141.78,0,0,1-17.15-4.68c-18.29-5.76-36.29-12.59-55.87-13.06-4-.1-8-1.82-11.88-3-8.31-2.52-16.57-5.23-24.87-7.79-13-4-25.85-8.43-39-11.79-13.46-3.43-27.2-5.8-41.06-7.91,12.88,8.71,26.42,15.7,41.54,19.54,19,4.83,38,10.12,57,15C731,704.07,745.67,707,760.13,711a34.62,34.62,0,0,1,13,7.18,41.27,41.27,0,0,0,33.2,10c14.59-1.87,27.95,3.69,42,4.66,5,.34,9.9,2.77,14.81,5.75-2,.28-4.1,1-6.08.78-23.62-2.45-47.27-4.73-70.83-7.66-28.13-3.5-56.32-6.86-84.23-11.74-14.31-2.51-28.07-8.18-42.08-12.43-6.1-1.85-12.09-4.39-18.32-5.43-14.42-2.4-26.29-9.91-38.57-17.1C581.58,672.42,580.26,652.89,582.11,628.36Z"/><path class="cls-3" d="M928.41,353c-10.61-2.48-19.74-4.44-26.87-11.62-8.9-9-20.49-10.25-32.12-12.95-1.21,7.51,3.39,7.81,6.94,9.63,13.27,6.8,26.53,13.66,39.42,21.13,4.13,2.39,7.11,6.76,12.32,11.9-4.68.64-7.17,1.67-9.31,1.16-8.84-2.08-17.79-4.05-26.28-7.2-6.3-2.34-12-6.35-17.9-9.76-4.71-2.73-9-6.64-14-8.35-18.27-6.2-34.42-16.42-51.11-25.65-3.15-1.75-6.72-3.57-10.2-3.8-12.66-.82-24.28-7.62-37.65-5.42-5.33.88-11.35-2.63-17.09-4-15.12-3.58-30.33-6.79-45.36-10.69-11.65-3-13-7.6-6.27-17.61,6.08-9.05,13.27-14.45,25.23-11.27,19.45,5.17,39.4,6.64,59.51,8,12.76.88,25.24,7.25,37.64,11.73,8.57,3.09,16.7,7.39,25.19,10.73,12.74,5,24.89,10.53,36.14,19,11.51,8.6,25,14.67,38.18,20.84C920.92,341.68,925.85,344.53,928.41,353ZM763.8,288.27c-9.52-1.47-19.07-2.82-28.56-4.45-9.3-1.61-18.55-6.06-30.69.1C725.44,292.56,744.34,292.61,763.8,288.27Zm86,30.39c-16.69-5.25-31.2-16.2-51-20.18C810.68,311.43,823.1,316.47,849.84,318.66Z"/><path class="cls-3" d="M950.07,357.76c-3.26-2.66-6.91-5-9.7-8.07-8.08-8.94-16.86-16.15-28.73-20.18-8.88-3-17.18-8.44-24.94-13.91-11.2-7.88-22.33-15.27-35.48-20-19.32-6.88-38-15.66-57.19-22.83-6.62-2.46-14.11-3.23-21.26-3.51-19.16-.76-37.75-4.12-56.82-9.15,2.84-16.58,19.24-23.23,22.07-37.81,10.38-.88,19.58-2,28.5,3.53,3.09,1.92,8,1.32,12,1.31,13,0,25.16,2,36.91,8.34,8.31,4.5,18,6.5,26.91,9.89,4,1.51,7.75,3.67,11.61,5.53-.31.9-.63,1.79-.94,2.69l-15.26-1.42c-1.37,6.43,3.09,7.85,6.58,9.25,14.89,6,30.23,10.34,46.42,10.92,12.13.43,14.65,2.32,18.92,15-8-2.11-15.19-4.18-22.47-5.89-7.48-1.76-15-3.42-22.57-4.66-20.45-3.35-39.18-10.59-55.61-23.44a9,9,0,0,0-3.81-1.49c-12.35-2.34-24.72-4.6-37.89-7,2.93,6.21,8.56,7.53,14.75,8.79,8.85,1.79,17.55,4.36,26.3,6.64a4.9,4.9,0,0,1,2.48,1.12c9.88,11.55,23.29,14.16,37.5,16,16.73,2.15,28.46,13.26,40.12,24.45,5.11,4.9,11.6,8.37,17.52,12.42.72.49,1.91.33,2.57.86,14.49,11.64,29,23.29,43.3,35.14,1,.84.75,3.22,1.09,4.89Z"/><path class="cls-3" d="M902.08,404.51c-2.24-.42-4.65-.46-6.71-1.32q-36-15.13-71.94-30.47a63.87,63.87,0,0,0-6.25-2.76c-26.67-8-53.28-16.21-80.07-23.77-19.77-5.57-39.79-10.2-59.67-15.37-11.83-3.08-13.21-6.75-6.64-17.11,1.47-2.32,3.47-4.3,4.83-6.66,3.85-6.66,9.31-7.92,16.39-5.95a825.94,825.94,0,0,0,96.22,20.6c6.58,1,13,4.27,19.07,7.27,15.13,7.43,29.92,15.58,45.09,22.92,10.07,4.88,10.26,4.48,17.06,15.72-11.28,3.07-18.06-10.95-29.16-7.49,0,1.57-.47,3.69.07,4,9.48,5.28,18.87,10.81,28.72,15.35,12.95,6,25.91,11.56,32.65,25.37Zm-94.53-51.15,2-2.73c-3.67-2.33-7.1-5.21-11-6.9-9.18-3.94-18.53-7.46-27.93-10.84-5.9-2.12-12-3.24-21,1.08C769.67,343.78,790,344.62,807.55,353.36Zm-106-32.68c10.41,10.17,12.62,10.81,23.51,6.82C718.17,321.74,711.3,317.89,701.59,320.68Z"/><path class="cls-3" d="M740.46,752.47c22.85,12.71,49.09,10.11,73.56,16.47-23.29,2.12-46.22,7.93-69.79-2.49a190.56,190.56,0,0,0-48.65-13.71c-24.58-3.67-46.09-13.77-67.31-25.6a175.52,175.52,0,0,0-24.91-11.29c-10.94-4-13.31-7.61-11.64-22,5,2.45,9.69,5.27,14.7,7,16.31,5.77,33,10.47,49.1,16.84,32.81,13,67.83,13.67,101.91,19.62,10.56,1.85,21.72,1.58,31.1,8.79,2.78,2.14,7.91,1.38,12,1.63,8.65.55,17.14,1.43,24.89,7C815.78,759.19,758.5,756.56,740.46,752.47Z"/><path class="cls-3" d="M781.89,793.49c-9.84,7.51-19.44,6-30.19,2.76a290,290,0,0,0-42.86-9.07c-33.42-4.87-64.26-17.18-94.57-31.24-2-.94-4.68-2.07-5.49-3.82-4.24-9.27-10.64-17.75-12.54-30,14.81,4.41,27.25,9.79,38.34,17.39a99.7,99.7,0,0,0,41.62,16.4c4.07.63,8.28,1,12.06,2.5,2.67,1,6.72,3.64,6.73,5.56,0,8.68,6.43,10.32,12.32,12.58a57.65,57.65,0,0,0,29.56,3.56A38.88,38.88,0,0,1,754,782C763.43,785.16,772.45,789.53,781.89,793.49Z"/><path class="cls-3" d="M875.2,246.75c-7.57-1.63-12.31-2.13-16.67-3.68-17.2-6.13-34.25-12.66-51.43-18.86a55.72,55.72,0,0,0-12-3c-15.67-1.91-31.37-3.52-47-5.24,1.56-17.44,12.69-24.12,27.23-19.51,12.08,3.83,24.85,5.88,37.47,7.49,11.1,1.42,21.86,1.58,27.7,13.86,1.43,3,6.5,5.24,10.27,6.05C862.37,226.34,867.73,234.86,875.2,246.75Z"/><path class="cls-3" d="M703,818.51c-22.52-5.42-45.62-8-65.55-22.86-7.91-5.89-14.76-11.61-19.23-20.19-.73-1.4-.64-3.23-1-5.5,22.34,7.25,43.51,15.1,65.24,20.9s44.11,9.59,66.71,14.37c-2.16,7.83-6.79,8.23-11.32,7.57-7.64-1.11-15.22-2.74-22.79-4.35-10-2.13-20-4.44-30-6.67-.31,1-.61,2-.92,3,3.53,1.63,7.13,3.1,10.55,4.92s6.51,3.93,9.76,5.91Z"/><path class="cls-3" d="M854.83,629.89c3.49-1.24,6.9-3.15,10.49-3.56a57.89,57.89,0,0,1,13.59.44q31.73,4,63.4,8.32c1.66.22,3.21,1.23,5.47,2.14-.9,5.72-2.91,10.3-8.86,10.25-13.9-.12-28,.43-41.62-1.9A205.56,205.56,0,0,1,855,633.31C854.92,632.17,854.88,631,854.83,629.89Z"/><path class="cls-3" d="M878.27,450.2c4.9-5.58,10.23-4.77,15.6-4.07,37.07,4.82,37.07,4.81,47.81,16.18-13,4.2-23.1-5.46-36.88-6.93,7.68,13,22.61,11.13,30.41,21.48-4.9,2.47-9.49,1.77-14,.05a48.55,48.55,0,0,1-8.46-4.47C901.42,465.2,890.13,457.85,878.27,450.2Z"/><path class="cls-3" d="M819.26,198.44c-12.78.37-23.46-1-33.56-5.19-6.61-2.75-8.15-7.15-5.18-11.66,3.12-4.73,6.8-5,12.79-1.31A85.13,85.13,0,0,0,804,185.51C809.65,187.94,816.1,189.26,819.26,198.44Z"/><path class="cls-3" d="M968.57,582.49l-54.68-7.79A39.17,39.17,0,0,1,968.57,582.49Z"/><path class="cls-3" d="M981.74,500.85c-21.77.25-41-1.65-59.37-10.16C934.77,485.28,970.84,490.87,981.74,500.85Z"/><path class="cls-3" d="M916.43,396.08c9.93.18,20.16-1.06,29.71.94,9.05,1.88,17.64,6.69,25.87,11.25,2.12,1.17,2.11,6.21,3,9.31-1.72.62-2.38,1-2.51.88-11.64-11.8-28-11.33-42.23-16.47-4.66-1.68-9-4.14-13.53-6.24Z"/><path class="cls-3" d="M916.77,395.75c-.45,0-1,.26-1.34.06-10.23-6.74-20.43-13.53-29.85-21.9,16.55,5.63,35,5.09,51.84,16.56-10.37,1.87-10.37,1.87-24.08-1.91,1.19,2.92,2.13,5.23,3.08,7.53Z"/><path class="cls-3" d="M887.83,716.65c-14.26,3.08-27.33,1-41.51.58C853.46,706.83,871.55,707,887.83,716.65Z"/><path class="cls-3" d="M926.16,310.25c-13.3,0-20-4.05-25.24-15.19C912,290.57,920.86,295.9,926.16,310.25Z"/><path class="cls-3" d="M679.15,824.72c-18.4,6.14-26.18,6.7-27.1-7C660.81,818.65,669.53,818.53,679.15,824.72Z"/><path class="cls-3" d="M937.06,424.54c-7.16-3.77-14.41-7.37-21.45-11.35-4.66-2.62-9-5.78-13.52-8.69l-.35.33c4.35.86,8.7,1.8,13.08,2.57,10.45,1.84,18.17,7.07,21.95,17.33Z"/><path class="cls-3" d="M953.74,515.59c13.72-2.62,15.31-2.22,23.56,5.9C964.41,523.48,962.6,523,953.74,515.59Z"/><path class="cls-3" d="M944,371.53c9.56.34,18.29,2.07,22.8,13.53C954.25,387.11,952.1,374.36,944,371.53Z"/><path class="cls-3" d="M705.47,763.72c9.18,1,18.2,2.56,25.47,8.85C721.62,772.11,711.82,773.25,705.47,763.72Z"/><path class="cls-3" d="M936.77,424.73c12.91-3.13,18.36,5.84,23.31,15.56q-11.46-7.92-23-15.79Z"/><path class="cls-3" d="M866,255.17c6.07-2.67,10.2-2.68,12.91,4.6C873.28,260.78,868.93,261.43,866,255.17Z"/><path class="cls-3" d="M956.55,451.58l8.93,3.59c-.41.75-.81,1.5-1.21,2.25-2.45-2.05-4.89-4.1-7.36-6.14Z"/><path class="cls-3" d="M619.39,469.29c5-1.44,7.18-2.71,9.16-2.5,12.87,1.4,26.09.11,38.34,6.33,5.49,2.78,12,3.78,18.09,5.1,7.23,1.57,15.12.65,21.43,5.87-13.85.21-27.56,2.43-41-3.65-6.42-2.9-14.08-3.15-21.22-4.39C636.86,474.78,628.88,476.09,619.39,469.29Z"/><path class="cls-3" d="M744.05,488.77c10.62-4.26,56.71,6.74,77.21,19.75-5.52-.92-11.53-.73-16.48-2.93C785.59,497,762.77,501.39,744.05,488.77Z"/><path class="cls-3" d="M716.32,521.18c-14.66,9-42,4.9-65.34-9.15,8.5-2.32,15,1.3,21.54,2.54,7.17,1.35,14.19,3.58,21.39,4.71C700.81,520.35,707.85,520.5,716.32,521.18Z"/><path class="cls-3" d="M918.53,535.31c-21.58,1.2-43.47,3.68-62.18-15.78,12.67.79,20.8,9.25,30.88,10.84,10.47,1.64,21.24,1.38,31.88,2C918.91,533.32,918.72,534.32,918.53,535.31Z"/><path class="cls-3" d="M838.93,551.58c-12.27-3.41-25.7-.76-34.72-13.54,2.11-.62,3.56-1.59,4.55-1.25,9.85,3.37,19.64,6.93,29.39,10.57C838.55,547.5,838.47,548.93,838.93,551.58Z"/><path class="cls-3" d="M774.75,530.87l-29.57-2.16.18-3c9.89-2.35,19.66-1,29.42,1.08Z"/><path class="cls-3" d="M697.93,556c7.8-3.59,15.65-2.13,23.72-.13,5.66,1.4,11.57,1.83,17.39,2.55,3.14.4,6.43.05,9.46.81,16.19,4,32.32,8.32,50.68,13.09-11.38,2.58-20.75,3.6-30.15-.06-15.8-6.16-31.87-10.32-49.1-9.83-7.43.22-14.92-1.67-22.37-2.61Z"/><path class="cls-3" d="M659.12,552.34c-17.67-.74-33.51-8.83-50-14.09-3.31-1-5.91-4.29-9.33-6.89,2.4-1.65,3.12-2.57,3.8-2.54a17.85,17.85,0,0,1,5.24.91q25.71,9.28,51.36,18.7C659.82,549.73,659.47,551,659.12,552.34Z"/><path class="cls-3" d="M645.92,561.82l28,8.83C664.44,575.11,653.79,572.35,645.92,561.82Z"/><path class="cls-3" d="M725,594.15c-9.09,4.25-9.09,4.25-12.71-5.33Z"/><path class="cls-3" d="M681.19,369.62c11.42-1.89,17.1,3.88,23.86,6.92,6.3,2.83,13.23,4.22,19.48,7.42C709,385.06,696,379.24,681.19,369.62Z"/><path class="cls-3" d="M678.83,437.47c-13.32-3.11-29.31,5.4-42.25-10.23C653.05,427.56,665.49,434.47,678.83,437.47Z"/><path class="cls-3" d="M771.25,451.59c7.49-5.45,7.49-5.45,14,3.52C779.48,457.18,774.84,457.26,771.25,451.59Z"/><path class="cls-3" d="M723.83,444.35c5.5-6,10.24-1.69,17.36.37C733.93,449.26,728.91,445.84,723.83,444.35Z"/><path class="cls-3" d="M830,469.44c-9.63,1.29-9.63,1.29-14.62-4.61C821.57,464.8,821.57,464.8,830,469.44Z"/><path class="cls-3" d="M763.8,288.27c-19.46,4.34-38.36,4.29-59.25-4.35,12.14-6.16,21.39-1.71,30.69-.1C744.73,285.45,754.28,286.8,763.8,288.27Z"/><path class="cls-3" d="M849.84,318.66c-26.74-2.19-39.16-7.23-51-20.18C818.64,302.46,833.15,313.41,849.84,318.66Z"/><path class="cls-3" d="M807.55,353.36c-17.54-8.74-37.88-9.58-58-19.39,9.06-4.32,15.15-3.2,21-1.08,9.4,3.38,18.75,6.9,27.93,10.84,3.94,1.69,7.37,4.57,11,6.9Z"/><path class="cls-3" d="M701.59,320.68c9.71-2.79,16.58,1.06,23.51,6.82C714.21,331.49,712,330.85,701.59,320.68Z"/><path d="M587.29,459.14h0c8-.19,11.5-.85,14.56-.25,19.93,3.88,24.95-3.08,43.36,4.83,8.25,3.55,18.24,5.75,27.66,8.17,11.11,2.85,23.53,3.7,32.78,9.51h0c-21.64-2.7-43.31-3.64-63.56-11.67-9.69-3.84-21.62-5.65-32.63-8.2C598.15,458.91,601.32,467,587.29,459.14Z"/><path d="M692.09,519.44c-15.32,3.58-42-2.84-63.85-15h0c8.62-.27,14.69,2.94,21.09,4.65,7,1.87,13.73,4.28,20.75,6,6.73,1.65,13.69,2.74,22,4.37Z"/><path d="M755.37,530l-29.09-5.44v-1.85c10.16-.2,19.86,2,29.48,4.73h0l-.39,2.56Z"/><path d="M607.08,536.2c-3.18-1.18-16.12-9.3-19.27-11.65L598.47,530c2.53-.92-11.56-9.25-10.88-9.14,1.74.27,18.41,8.43,20,9.07q29.17,11.91,58.28,23.94C643.71,553.24,626.05,543.3,607.08,536.2Z"/><path d="M638.59,560.26l28,8.82h0c-9.46,4.46-20.11,1.69-28-8.83Z"/><path d="M717.69,592.59c-9.09,4.25-9.09,4.25-12.72-5.33h0l12.71,5.33Z"/><path d="M681.09,368.68h0c12.15,1.21,17.78,4.36,24.72,6.66,6.45,2.14,13.67,3.84,20.05,6.11h0C634.06,365.63,569.33,342.37,681.09,368.68Z"/><path d="M671.5,435.91c-13.32-3.11-50.37,1.35-63.31-14.27C624.67,422,658.16,432.91,671.5,435.91Z"/><path d="M763.92,450c7.49-5.44,7.49-5.44,14,3.53h0c-5.71,2.06-10.35,2.14-13.94-3.51Z"/><path d="M716.5,442.79c5.5-6,10.23-1.69,17.35.37h0c-7.25,4.53-12.27,1.12-17.35-.37Z"/><path d="M822.62,467.88c-9.62,1.28-9.63,1.28-14.61-4.61h0c6.22,0,6.23,0,14.61,4.61Z"/><path d="M762,290.64c-32.63.62-48.09,5.57-81.61-7h0c20.75-3.81,19.76-6.22,34.94-2.86,15.5,3.42,31.11,6.57,46.67,9.84Z"/><path d="M669.93,316.41c9.71-2.78,40.34,4.59,47.27,10.35C708,326.31,682.42,321.06,669.93,316.41Z"/><path d="M300.89,440.36c2.61,5.35,3.24,8.86,5.33,10.51,7.48,5.88,14.83,12.52,23.36,16.35,24.19,10.88,47.56,22.88,69,38.67,7.82,5.75,16.32,11.55,27.55,11.87.55-3.73,1.23-6.81,1.41-9.92.84-14.32-.65-14.83-14.21-20.59-10.94-4.65-20.74-11.95-31.05-18.08,8.54-3.95,13.66,1.63,19.79,3.83,7.23,2.61,14.4,5.81,21.88,7.09,2.71.47,6.24-3.88,9.39-6-2.45-2.33-4.52-5.88-7.42-6.78-21.25-6.61-41.3-16.32-64-19.54-14.83-2.11-28.66-11.35-42.89-17.5-3.53-1.53-6.57-5.62-11.61-.88,1.44,2,2.46,4.86,4.45,6,11.47,6.59,23.19,12.75,34.77,19.15a74.49,74.49,0,0,1,6.52,4.54C333.4,461.37,321.74,443.92,300.89,440.36Z"/><path d="M361.87,554.05c-16.57.37-23.76-3-32.81-12.5-6.6-6.9-14.05-13-21.46-19.08-2.06-1.69-5.31-1.92-11-3.83,3.53,5.26,4.85,8.17,7,10.23,7.24,7,14.53,13.94,22.25,20.39,14.7,12.28,29.93,23.93,44.5,36.36,10,8.55,19.22,18.06,28.94,27,8.46,7.76,19.07,9.91,29.92,11.58,2.81-16.93,1.2-20.61-11.93-28.64-5.45-3.33-11-6.54-16.15-10.3-1.57-1.15-1.94-4-3.45-7.31,11.11,1.36,18.21,9.68,29.31,9.12-1.2-3.62-1.25-7-2.92-8.29C412.55,569.92,402.85,559,388.23,554c-28.24-9.63-54-24-75.28-45.52-3.57-3.63-7.15-7.82-15.1-8.51,2.48,3.45,3.48,5.46,5,6.89,6,5.55,12.11,11,18.27,16.33,11.53,10,20.49,23.73,37.26,26.52C359.34,549.9,360,551.67,361.87,554.05Z"/><path d="M419.07,426.28c-4.05,7.22-10.84,5.78-16.35,4.93-17.51-2.68-34.84-6.58-52.37-9.11-9.82-1.42-19.82-5-32.61-1.1,20.08,11.39,37.88,21.46,59,22.63a94.25,94.25,0,0,1,36.79,9.82c7.27,3.57,15,6.44,24.49,5,2.22-9.05,3.92-17.95,6.64-26.53,3.15-9.95,1.19-14.35-8.79-16.2-4-.75-8.21-.7-12.2-1.55-27.17-5.78-54.28-11.85-81.48-17.47-6.29-1.29-13-2.63-21,2.43,11.76,4.95,21.33,10.41,31.63,13C374.32,417.56,396.23,421.49,419.07,426.28Z"/><path d="M462.26,386.43c5.88-14.6,5.42-15.29-7.63-15.5a45.4,45.4,0,0,1-9.3-1.65c-12.84-3-25.53-7.08-38.53-8.73-17.14-2.18-34.51-2.45-51.79-3.44-.64,0-1.34.94-2.88,2.12,2,1.79,3.55,4.32,5.68,4.94,6.52,1.89,13.24,3.09,19.91,4.47,4.56.95,9.94.51,11.78,7-9.41,3.51-18,1-26-1.76-13.64-4.67-24.37,2.24-36.29,7.69,20,7.36,41.21,8.61,61.52,13.63,21.13,5.21,42.23,10.51,63,15.69,6.73-13.07,4.38-19.85-7.65-24-3-1-6.31-1-9.42-1.7-7.32-1.68-14.69-3.34-20.31-9.34C430.59,376.94,446.55,378.64,462.26,386.43Z"/><path d="M439,295.81c-14.32,3.06-26.44,11.85-42,7.88-6-1.54-12.74-.77-19.1-.39-1.49.09-3.93,2.88-3.91,4.4s2.16,3.87,3.9,4.63c1.94.84,4.48.47,6.75.34,14.12-.81,28.25-2.51,42.36-2.37,18.16.17,36.36-1.26,54.45,3.56,16.88,4.49,17.15,3.55,27-11.69,2.17-3.38,4.2-6.85,7.37-12-5.15-2.47-9.15-5.48-13.56-6.33-28.46-5.46-57.33-5-86.12-4.92-5,0-10,2.4-15.37,3.8,6.33,12.89,15.58,12.68,25.42,9.84C430.48,291.25,434.66,288.35,439,295.81Z"/><path d="M363.16,336.1c6.69,10.6,16.51,13.72,28.13,13.24,5.43-.23,10.95-.62,16.3,0,16.26,2,32.4,5,48.69,6.53,22.58,2.13,22.62,1.71,32.68-18.64,4.88-9.86,3.3-12.84-7.3-14.76-26.68-4.84-53.54-4.42-80.4-2.66-7.28.48-14.43,2.86-21.65,4.37.16,1,.32,1.92.49,2.88,6.26.44,12.57.51,18.76,1.41,5.62.83,12.56-.09,15.54,7.6Z"/><path d="M345.44,666.8l53,33.67c-.49,1-1,2-1.45,3l-23.39-7.09c15.46,20.44,63.37,45.82,85.89,46.71.13-7.93-2.95-12.91-11.14-14.44-5.16-1-10.83-1.43-14.15-8.37l15.53,1.59,2.64-4.44a56.39,56.39,0,0,1-6.38-2.73c-16.17-9.4-32.37-18.74-48.4-28.39-13.15-7.92-26.81-14.61-35-29.41-4.45-8-13.83-13.71-24.67-15-2.19,13.13,12,10,15.55,18Z"/><path d="M326.06,615.43c-.31.91-.63,1.81-.94,2.71,8,5.16,15.66,10.77,23.93,15.35C361.64,640.46,370,652,380.4,661c16,13.89,35.46,23.83,53.67,35.09,3.14,1.94,7.36,2.15,12.09,3.44-.83-9.7-7.39-12.58-12.81-16.47-5.88-4.24-11.33-9.13-17.47-12.91-5.37-3.3-12-4.75-14.28-12.23l38.76,15.83c1.16-5.65-.09-10.14-5.66-12.24-9.76-3.69-19.64-7-29.53-10.33-13.17-4.37-25.73-10.25-34.6-21-8.42-10.19-18.73-13.91-31.2-14C334.93,616.09,330.49,615.68,326.06,615.43Z"/><path d="M538.08,252.52c-3.38-7.67-9.15-9.48-16.05-8.94-3.16.24-6.62,2-9.39,1.15-18.32-5.42-36.1,3.33-54.34,1.76-5.93-.51-13.92.44-16.44,9.46,9.91,9.69,22.2-5.63,32.32,3.61l-12.43,8c4.39,2.18,6.93,4.44,9.58,4.58,15.08.78,30,2,44.42,7.08,2.35.82,7.34-1.44,8.93-3.76C529.77,268.1,533.83,260,538.08,252.52Z"/><path d="M434.74,652.27c1.06-15.12-.36-18.33-13.28-20.86-17.33-3.4-31.11-12.68-44.1-23.55-5.16-4.32-8.62-10.69-13.83-14.93C347,579.4,330,566.41,313,553.32c-1.2-.93-3.14-.91-5.45-1.52-2.29,14.5,10.48,17.15,17.61,24l-9.91,5.19c5.77,4.79,10,8.85,14.72,12.06a153.52,153.52,0,0,0,17.69,10.18c15.89,7.89,29.3,19.15,43.51,29.5C403.62,641.72,419.67,645.76,434.74,652.27Z"/><path d="M426,545.15c0-7.48-4.73-9.2-9.2-11.23-25.26-11.44-50.48-23-75.76-34.36-12.15-5.47-24.39-10.73-36.59-16.08a192.36,192.36,0,0,0,59.42,51.24c10.69,5.9,22.41,9.93,33.58,15,8.91,4,17.7,8.33,27.19,12.81,2.11-12-13.57-11.12-15.1-21.79Z"/><path d="M502.31,224.71c-24.92-.13-25-.11-28.54,10.11,12,0,24.17-.48,36.26.14,12.53.64,25,2.34,38.93,3.72a83,83,0,0,0,4.67-7.52c6.27-12.25,4.43-17.82-9.22-20.41-9.63-1.83-19.91-.73-29.85-.15C504,211.22,503.42,212.27,502.31,224.71Z"/><path d="M406.87,734.78l-1.61,2.74c6.42,13.07,18.32,17.59,31.87,19.14,7.41.85,14.12,2.15,19.4,8.39,4,4.75,10,5.46,16.64,4.63-.49-8-3.45-12.17-11.25-13.28a71.18,71.18,0,0,1-16.83-5C432.25,746.12,419.6,740.35,406.87,734.78Z"/><path d="M449.25,774.39c7.86,12.6,33,29.51,46.32,31.13C483,781.92,475.22,776.66,449.25,774.39Z"/><path d="M419.2,270.78c13.44,0,25.2,3.19,38.63-.67-9.27-2.67-16.65-5.47-24.28-6.77C428.62,262.49,421.66,260,419.2,270.78Z"/><path d="M543.77,197.62c5.92,8.78,15.38,7.51,22.31,11.12.41.22,2.6-1.49,2.64-2.36.06-1.6-.35-3.95-1.46-4.75C560.59,196.79,553.28,194.81,543.77,197.62Z"/><path d="M327.88,476.84l-2,3.76L351,490.66c.39-.91.79-1.82,1.19-2.73Z"/><path d="M580.41,191.91c1-1.35,2.36-2.37,2.24-3.18a3.51,3.51,0,0,0-2.44-2.36,3.27,3.27,0,0,0-2.37,2.25C577.89,189.59,579.24,190.51,580.41,191.91Z"/><path class="cls-3" d="M300.89,440.36c20.85,3.56,32.51,21,52.34,18.69a74.49,74.49,0,0,0-6.52-4.54c-11.58-6.4-23.3-12.56-34.77-19.15-2-1.15-3-4-4.45-6,5-4.74,8.08-.65,11.61.88,14.23,6.15,28.06,15.39,42.89,17.5,22.66,3.22,42.71,12.93,64,19.54,2.9.9,5,4.45,7.42,6.78-3.15,2.16-6.68,6.51-9.39,6-7.48-1.28-14.65-4.48-21.88-7.09-6.13-2.2-11.25-7.78-19.79-3.83,10.31,6.13,20.11,13.43,31.05,18.08,13.56,5.76,15.05,6.27,14.21,20.59-.18,3.11-.86,6.19-1.41,9.92-11.23-.32-19.73-6.12-27.55-11.87-21.47-15.79-44.84-27.79-69-38.67-8.53-3.83-15.88-10.47-23.36-16.35C304.13,449.22,303.5,445.71,300.89,440.36Z"/><path class="cls-3" d="M361.87,554.05c-1.86-2.38-2.53-4.15-3.46-4.3-16.77-2.79-25.73-16.47-37.26-26.52-6.16-5.37-12.28-10.78-18.27-16.33-1.55-1.43-2.55-3.44-5-6.89,7.95.69,11.53,4.88,15.1,8.51,21.26,21.56,47,35.89,75.28,45.52,14.62,5,24.32,15.88,35.81,24.71,1.67,1.28,1.72,4.67,2.92,8.29-11.1.56-18.2-7.76-29.31-9.12,1.51,3.36,1.88,6.16,3.45,7.31,5.15,3.76,10.7,7,16.15,10.3,13.13,8,14.74,11.71,11.93,28.64-10.85-1.67-21.46-3.82-29.92-11.58-9.72-8.91-18.92-18.42-28.94-27-14.57-12.43-29.8-24.08-44.5-36.36-7.72-6.45-15-13.41-22.25-20.39-2.14-2.06-3.46-5-7-10.23,5.71,1.91,9,2.14,11,3.83,7.41,6.06,14.86,12.18,21.46,19.08C338.11,551,345.3,554.42,361.87,554.05Z"/><path class="cls-3" d="M419.07,426.28c-22.84-4.79-44.75-8.72-66.28-14.16-10.3-2.61-19.87-8.07-31.63-13,8-5.06,14.73-3.72,21-2.43,27.2,5.62,54.31,11.69,81.48,17.47,4,.85,8.18.8,12.2,1.55,10,1.85,11.94,6.25,8.79,16.2-2.72,8.58-4.42,17.48-6.64,26.53-9.5,1.47-17.22-1.4-24.49-5a94.25,94.25,0,0,0-36.79-9.82c-21.11-1.17-38.91-11.24-59-22.63,12.79-3.9,22.79-.32,32.61,1.1,17.53,2.53,34.86,6.43,52.37,9.11C408.23,432.06,415,433.5,419.07,426.28Z"/><path class="cls-3" d="M462.26,386.43c-15.71-7.79-31.67-9.49-47.88-10.57,5.62,6,13,7.66,20.31,9.34,3.11.72,6.44.67,9.42,1.7,12,4.13,14.38,10.91,7.65,24-20.8-5.18-41.9-10.48-63-15.69-20.31-5-41.51-6.27-61.52-13.63,11.92-5.45,22.65-12.36,36.29-7.69,8,2.73,16.59,5.27,26,1.76-1.84-6.48-7.22-6-11.78-7-6.67-1.38-13.39-2.58-19.91-4.47-2.13-.62-3.71-3.15-5.68-4.94,1.54-1.18,2.24-2.16,2.88-2.12,17.28,1,34.65,1.26,51.79,3.44,13,1.65,25.69,5.77,38.53,8.73a45.4,45.4,0,0,0,9.3,1.65C467.68,371.14,468.14,371.83,462.26,386.43Z"/><path class="cls-3" d="M439,295.81c-4.31-7.46-8.49-4.56-12.87-3.29-9.84,2.84-19.09,3.05-25.42-9.84,5.4-1.4,10.38-3.79,15.37-3.8,28.79-.08,57.66-.54,86.12,4.92,4.41.85,8.41,3.86,13.56,6.33-3.17,5.19-5.2,8.66-7.37,12-9.83,15.24-10.1,16.18-27,11.69-18.09-4.82-36.29-3.39-54.45-3.56-14.11-.14-28.24,1.56-42.36,2.37-2.27.13-4.81.5-6.75-.34-1.74-.76-3.88-3-3.9-4.63s2.42-4.31,3.91-4.4c6.36-.38,13.07-1.15,19.1.39C412.53,307.66,424.65,298.87,439,295.81Zm44.62-2.39-25.35-3C462.73,301.46,471,302.76,483.59,293.42Z"/><path class="cls-3" d="M363.16,336.1H414.4c-3-7.69-9.92-6.77-15.54-7.6-6.19-.9-12.5-1-18.76-1.41-.17-1-.33-1.92-.49-2.88,7.22-1.51,14.37-3.89,21.65-4.37,26.86-1.76,53.72-2.18,80.4,2.66,10.6,1.92,12.18,4.9,7.3,14.76-10.06,20.35-10.1,20.77-32.68,18.64-16.29-1.53-32.43-4.56-48.69-6.53-5.35-.65-10.87-.26-16.3,0C379.67,349.82,369.85,346.7,363.16,336.1Zm110.44.29c-10.69-6.55-25.16-6.5-37.15-.5C450.1,341.09,461.93,336.87,473.6,336.39Z"/><path class="cls-3" d="M345.44,666.8l8-6.84c-3.58-8-17.74-4.91-15.55-18,10.84,1.3,20.22,7,24.67,15,8.22,14.8,21.88,21.49,35,29.41,16,9.65,32.23,19,48.4,28.39a56.39,56.39,0,0,0,6.38,2.73l-2.64,4.44-15.53-1.59c3.32,6.94,9,7.41,14.15,8.37,8.19,1.53,11.27,6.51,11.14,14.44-22.52-.89-70.43-26.27-85.89-46.71L397,703.5c.48-1,1-2,1.45-3Z"/><path class="cls-3" d="M326.06,615.43c4.43.25,8.87.66,13.31.71,12.47.13,22.78,3.85,31.2,14,8.87,10.75,21.43,16.63,34.6,21,9.89,3.29,19.77,6.64,29.53,10.33,5.57,2.1,6.82,6.59,5.66,12.24L401.6,657.92c2.28,7.48,8.91,8.93,14.28,12.23,6.14,3.78,11.59,8.67,17.47,12.91,5.42,3.89,12,6.77,12.81,16.47-4.73-1.29-9-1.5-12.09-3.44-18.21-11.26-37.67-21.2-53.67-35.09-10.43-9-18.76-20.54-31.35-27.51-8.27-4.58-16-10.19-23.93-15.35C325.43,617.24,325.75,616.34,326.06,615.43Z"/><path class="cls-3" d="M538.08,252.52c-4.25,7.47-8.31,15.58-13.4,23-1.59,2.32-6.58,4.58-8.93,3.76-14.45-5.05-29.34-6.3-44.42-7.08-2.65-.14-5.19-2.4-9.58-4.58l12.43-8c-10.12-9.24-22.41,6.08-32.32-3.61,2.52-9,10.51-10,16.44-9.46,18.24,1.57,36-7.18,54.34-1.76,2.77.82,6.23-.91,9.39-1.15C528.93,243,534.7,244.85,538.08,252.52Z"/><path class="cls-3" d="M434.74,652.27c-15.07-6.51-31.12-10.55-43.53-19.59-14.21-10.35-27.62-21.61-43.51-29.5A153.52,153.52,0,0,1,330,593c-4.76-3.21-8.95-7.27-14.72-12.06l9.91-5.19c-7.13-6.8-19.9-9.45-17.61-24,2.31.61,4.25.59,5.45,1.52C330,566.41,347,579.4,363.53,592.93c5.21,4.24,8.67,10.61,13.83,14.93,13,10.87,26.77,20.15,44.1,23.55C434.38,633.94,435.8,637.15,434.74,652.27Z"/><path class="cls-3" d="M426,545.15l-16.46-4.43c1.53,10.67,17.21,9.77,15.1,21.79-9.49-4.48-18.28-8.78-27.19-12.81-11.17-5.05-22.89-9.08-33.58-15a192.36,192.36,0,0,1-59.42-51.24c12.2,5.35,24.44,10.61,36.59,16.08,25.28,11.4,50.5,22.92,75.76,34.36C421.23,536,426,537.67,426,545.15Zm-58.75-23c6.32,3.18,11.08,9.62,22.34,9.21C382.19,523.55,376.9,518.23,367.21,522.12Z"/><path class="cls-3" d="M502.31,224.71c1.11-12.44,1.68-13.49,12.25-14.11,9.94-.58,20.22-1.68,29.85.15,13.65,2.59,15.49,8.16,9.22,20.41a83,83,0,0,1-4.67,7.52C535,237.3,522.56,235.6,510,235c-12.09-.62-24.23-.14-36.26-.14C477.33,224.6,477.39,224.58,502.31,224.71Z"/><path class="cls-3" d="M406.87,734.78c12.73,5.57,25.38,11.34,38.22,16.63a71.18,71.18,0,0,0,16.83,5c7.8,1.11,10.76,5.31,11.25,13.28-6.67.83-12.63.12-16.64-4.63-5.28-6.24-12-7.54-19.4-8.39-13.55-1.55-25.45-6.07-31.87-19.14Z"/><path class="cls-3" d="M449.25,774.39c26,2.27,33.79,7.53,46.32,31.13C482.27,803.9,457.11,787,449.25,774.39Z"/><path class="cls-3" d="M419.2,270.78c2.46-10.79,9.42-8.29,14.35-7.44,7.63,1.3,15,4.1,24.28,6.77C444.4,274,432.64,270.75,419.2,270.78Z"/><path class="cls-3" d="M543.77,197.62c9.51-2.81,16.82-.83,23.49,4,1.11.8,1.52,3.15,1.46,4.75,0,.87-2.23,2.58-2.64,2.36C559.15,205.13,549.69,206.4,543.77,197.62Z"/><path class="cls-3" d="M327.88,476.84l24.33,11.09c-.4.91-.8,1.82-1.19,2.73L325.9,480.6Z"/><path class="cls-3" d="M580.41,191.91c-1.17-1.4-2.52-2.32-2.57-3.29a3.27,3.27,0,0,1,2.37-2.25,3.51,3.51,0,0,1,2.44,2.36C582.77,189.54,581.42,190.56,580.41,191.91Z"/><path d="M483.59,293.42c-12.63,9.34-20.86,8-25.35-3Z"/><path d="M473.6,336.39c-11.67.48-23.5,4.7-37.15-.5C448.44,329.89,462.91,329.84,473.6,336.39Z"/><path d="M367.21,522.12c9.69-3.89,15,1.43,22.34,9.21C378.29,531.74,373.53,525.3,367.21,522.12Z"/><path class="cls-3" d="M559.79,188.6c10.61-.28,28-6,36.15-4.37,0,0-12.1,9.5-12.12,9.52-2.34,2.35-4.17-3-24.05-5.07C559.73,188.67,559.75,188.6,559.79,188.6Z"/></g></svg>